<?xml version="1.0" encoding="iso-8859-1"?>
<!-- Uploaded to: SVG Repo, www.svgrepo.com, Generator: SVG Repo Mixer Tools -->
<svg version="1.1" id="Layer_1" xmlns="http://www.w3.org/2000/svg" xmlns:xlink="http://www.w3.org/1999/xlink" 
	 viewBox="0 0 512 512" xml:space="preserve">
<rect x="8" y="108" style="fill:#EFF2FA;" width="496" height="136"/>
<g>
	<path style="fill:#B9E678;" d="M304.001,220H424c0-11.216,21.49-20.308,48-20.308v-47.385c-26.51,0-48-9.092-48-20.308H304.001V220
		z"/>
	<path style="fill:#B9E678;" d="M208.002,132H88c0,11.216-21.49,20.308-48,20.308v47.385c26.51,0,48,9.092,48,20.308h120.002V132z"
		/>
</g>
<rect x="8" y="244" style="fill:#D7DEED;" width="496" height="160"/>
<rect x="280.5" y="108" style="fill:#FFD782;" width="23.5" height="135"/>
<rect x="280.5" y="243" style="fill:#FFC36E;" width="23.5" height="161"/>
<rect x="208" y="108" style="fill:#FFD782;" width="23.5" height="135"/>
<rect x="208" y="243" style="fill:#FFC36E;" width="23.5" height="161"/>
<rect x="231.5" y="243" style="fill:#FFD782;" width="49" height="161"/>
<rect x="231.5" y="108" style="fill:#FFEBC3;" width="49" height="135"/>
<g>
	<path style="fill:#2D2B29;" d="M128,196.022c18.542,0,32-8.421,32-20.022c0-4.418-3.582-8-8-8c-4.257,0-7.738,3.325-7.986,7.521
		c-1.116,1.461-6.764,4.502-16.014,4.502c-8.328,0-13.736-2.465-15.546-4.022c1.81-1.558,7.219-4.022,15.546-4.022
		c4.418,0,8-3.582,8-8s-3.582-8-8-8c-18.542,0-32,8.421-32,20.022S109.458,196.022,128,196.022z"/>
	<path style="fill:#2D2B29;" d="M408,168c-4.257,0-7.738,3.325-7.986,7.521c-1.116,1.461-6.764,4.502-16.014,4.502
		c-8.328,0-13.736-2.465-15.546-4.022c1.81-1.558,7.219-4.022,15.546-4.022c4.418,0,8-3.582,8-8s-3.582-8-8-8
		c-18.542,0-32,8.421-32,20.022s13.458,20.022,32,20.022s32-8.421,32-20.022C416,171.582,412.418,168,408,168z"/>
	<path style="fill:#2D2B29;" d="M504,100H8c-4.418,0-8,3.582-8,8v136v160c0,4.418,3.582,8,8,8h496c4.418,0,8-3.582,8-8V244V108
		C512,103.582,508.418,100,504,100z M496,236H312v-8h112c4.418,0,8-3.582,8-8c0-3.163,13.753-12.308,40-12.308c4.418,0,8-3.582,8-8
		v-47.385c0-4.418-3.582-8-8-8c-26.247,0-40-9.145-40-12.308c0-4.418-3.582-8-8-8H312v-8h184V236z M296,396h-80V252h80V396z
		 M216,236v-15.961c0-0.014,0.002-0.026,0.002-0.039S216,219.975,216,219.961v-87.922c0-0.014,0.002-0.026,0.002-0.039
		S216,131.975,216,131.961V116h80v120H216z M200,212H94.076C88.047,200.154,68.695,193.353,48,191.961v-31.922
		c20.695-1.392,40.047-8.193,46.076-20.039H200V212z M312,140h105.924c6.029,11.846,25.381,18.647,46.076,20.039v31.922
		c-20.695,1.392-40.047,8.193-46.076,20.039H312V140z M16,116h184v8H88c-4.418,0-8,3.582-8,8c0,3.163-13.753,12.308-40,12.308
		c-4.418,0-8,3.582-8,8v47.385c0,4.418,3.582,8,8,8c26.247,0,40,9.145,40,12.308c0,4.418,3.582,8,8,8h112v8H16V116z M16,380h160
		c4.418,0,8-3.582,8-8s-3.582-8-8-8H16v-16h160c4.418,0,8-3.582,8-8s-3.582-8-8-8H16v-16h160c4.418,0,8-3.582,8-8s-3.582-8-8-8H16
		v-16h160c4.418,0,8-3.582,8-8s-3.582-8-8-8H16v-16h184v144H16V380z M312,396v-16h136c4.418,0,8-3.582,8-8s-3.582-8-8-8H312v-16h136
		c4.418,0,8-3.582,8-8s-3.582-8-8-8H312v-16h136c4.418,0,8-3.582,8-8s-3.582-8-8-8H312v-16h136c4.418,0,8-3.582,8-8s-3.582-8-8-8
		H312v-16h184v16h-16c-4.418,0-8,3.582-8,8s3.582,8,8,8h16v16h-16c-4.418,0-8,3.582-8,8s3.582,8,8,8h16v16h-16c-4.418,0-8,3.582-8,8
		s3.582,8,8,8h16v16h-16c-4.418,0-8,3.582-8,8s3.582,8,8,8h16v16H312z"/>
</g>
</svg>