<?xml version="1.0" encoding="iso-8859-1"?>
<!-- Uploaded to: SVG Repo, www.svgrepo.com, Generator: SVG Repo Mixer Tools -->
<svg height="800px" width="800px" version="1.1" id="Layer_1" xmlns="http://www.w3.org/2000/svg" xmlns:xlink="http://www.w3.org/1999/xlink" 
	 viewBox="0 0 512 512" xml:space="preserve">
<path style="fill:#EFF2FA;" d="M472,312V200c-26.51,0-48-21.49-48-48H88c0,26.51-21.49,48-48,48v112c26.51,0,48,21.49,48,48h336
	C424,333.49,445.49,312,472,312z"/>
<path style="fill:#B9E678;" d="M496,120H16c-4.4,0-8,3.6-8,8v256c0,4.4,3.6,8,8,8h480c4.4,0,8-3.6,8-8V128
	C504,123.6,500.4,120,496,120z M40,312V200c26.51,0,48-21.49,48-48h110.447C171.594,174.814,154,212.883,154,256
	s17.594,81.186,44.447,104H88C88,333.49,66.51,312,40,312z M472,312c-26.51,0-48,21.49-48,48H315.553
	C342.406,337.186,360,299.117,360,256s-17.594-81.186-44.447-104H424c0,26.51,21.49,48,48,48V312z"/>
<ellipse style="fill:#D7DEED;" cx="257" cy="256" rx="88" ry="108"/>
<path style="fill:#B9E678;" d="M484.621,137.423H27.379c-4.86,0-8.793,4.097-8.793,9.16v219.834c0,5.063,3.933,9.16,8.793,9.16
	H484.62c4.86,0,8.793-4.097,8.793-9.16V146.583C493.414,141.52,489.481,137.423,484.621,137.423z M475.828,182.063
	c-12.344-3.32-22.08-13.462-25.267-26.321h25.267V182.063z M61.439,155.742c-3.188,12.859-12.923,23.001-25.267,26.321v-26.321
	H61.439z M36.172,330.938c12.344,3.319,22.08,13.462,25.267,26.32H36.172V330.938z M79.392,357.258
	c-3.718-22.979-21.161-41.148-43.219-45.021V200.764c22.058-3.872,39.501-22.043,43.219-45.021H199.83
	c-29.626,21.109-49.346,58.382-49.346,100.758s19.72,79.648,49.346,100.758H79.392V357.258z M256,155.742
	c48.482,0,87.931,45.2,87.931,100.758c0,55.559-39.448,100.758-87.931,100.758s-87.931-45.199-87.931-100.758
	C168.069,200.942,207.518,155.742,256,155.742z M361.517,256.5c0-42.376-19.72-79.648-49.346-100.758h120.438
	c3.718,22.979,21.161,41.149,43.219,45.021v111.473c-22.058,3.873-39.501,22.043-43.219,45.021H312.171
	C341.797,336.148,361.517,298.876,361.517,256.5z M450.561,357.258c3.188-12.858,12.923-23.001,25.267-26.32v26.32H450.561z"/>
<g>
	<circle style="fill:#9BDC6E;" cx="128" cy="256" r="24"/>
	<circle style="fill:#9BDC6E;" cx="384" cy="256" r="24"/>
</g>
<g>
	<path style="fill:#2D2B29;" d="M496,112H16c-8.822,0-16,7.178-16,16v256c0,8.822,7.178,16,16,16h480c8.822,0,16-7.178,16-16V128
		C512,119.178,504.822,112,496,112z M496,384H16V128h480V384z"/>
	<path style="fill:#2D2B29;" d="M40,320c22.056,0,40,17.944,40,40c0,4.418,3.582,8,8,8h336c4.418,0,8-3.582,8-8
		c0-22.056,17.944-40,40-40c4.418,0,8-3.582,8-8V200c0-4.418-3.582-8-8-8c-22.056,0-40-17.944-40-40c0-4.418-3.582-8-8-8H88
		c-4.418,0-8,3.582-8,8c0,22.056-17.944,40-40,40c-4.418,0-8,3.582-8,8v112C32,316.418,35.582,320,40,320z M48,207.431
		C72.489,203.912,91.912,184.49,95.43,160h321.14c3.518,24.489,22.941,43.912,47.43,47.431v97.139
		c-24.489,3.519-43.912,22.941-47.43,47.431H95.43C91.912,327.512,72.489,308.089,48,304.57V207.431z"/>
	<path style="fill:#2D2B29;" d="M128,288c17.645,0,32-14.355,32-32c0-4.418-3.582-8-8-8s-8,3.582-8,8c0,8.822-7.178,16-16,16
		s-16-7.178-16-16s7.178-16,16-16c4.418,0,8-3.582,8-8s-3.582-8-8-8c-17.645,0-32,14.355-32,32S110.355,288,128,288z"/>
	<path style="fill:#2D2B29;" d="M384,288c17.645,0,32-14.355,32-32c0-4.418-3.582-8-8-8s-8,3.582-8,8c0,8.822-7.178,16-16,16
		s-16-7.178-16-16s7.178-16,16-16c4.418,0,8-3.582,8-8s-3.582-8-8-8c-17.645,0-32,14.355-32,32S366.355,288,384,288z"/>
	<path style="fill:#2D2B29;" d="M256,312c-17.645,0-32-10.767-32-24c0-4.418-3.582-8-8-8s-8,3.582-8,8
		c0,19.783,17.329,36.25,40,39.434V336c0,4.418,3.582,8,8,8s8-3.582,8-8v-8.566c22.671-3.184,40-19.65,40-39.434
		c0-22.056-21.533-40-48-40c-17.645,0-32-10.767-32-24s14.355-24,32-24s32,10.767,32,24c0,4.418,3.582,8,8,8s8-3.582,8-8
		c0-19.783-17.329-36.249-40-39.434V176c0-4.418-3.582-8-8-8s-8,3.582-8,8v8.566c-22.671,3.185-40,19.65-40,39.434
		c0,22.056,21.533,40,48,40c17.645,0,32,10.767,32,24S273.645,312,256,312z"/>
</g>
</svg>