<svg width="580" height="800" viewBox="0 0 580 800" fill="none" xmlns="http://www.w3.org/2000/svg">
<path d="M552.069 0H27.9316C12.691 0 0.345703 12.3453 0.345703 27.5859V772.414C0.345703 787.655 12.691 800 27.9316 800H552.069C567.31 800 579.655 787.655 579.655 772.414V27.5859C579.655 12.3453 567.311 0 552.069 0Z" fill="#E6EEF4"/>
<path d="M331.38 579.311C331.38 613.545 340.814 647.78 344.083 658.58C344.62 660.359 343.269 662.069 341.42 662.069H238.565C236.717 662.069 235.38 660.358 235.903 658.592C239.144 647.738 248.62 613.13 248.62 579.309C234.98 589.186 219.24 594.275 201.875 594.275C151.447 594.275 107.695 551.93 110.855 500.869C112.62 472.152 130.909 447.517 155.269 432.234C179.723 416.883 202.4 415.655 222.675 420.58C209.709 405.228 201.875 385.42 201.875 363.766C201.875 309.338 251.212 266.428 307.598 277.338C342.895 284.152 370.936 313.158 376.867 348.606C381.473 376.109 373.267 401.709 357.336 420.578C377.75 415.627 400.605 416.909 425.253 432.55C449.501 447.944 467.722 472.522 469.39 501.184C472.342 552.108 428.453 594.273 378.136 594.273C361.006 594.277 344.759 588.98 331.38 579.311Z" fill="black"/>
<path d="M41.7236 220.689C41.7236 228.306 47.8986 234.483 55.5174 234.483C63.1346 234.483 69.3111 228.308 69.3111 220.689V55.1719C69.3111 47.5547 63.1361 41.3782 55.5174 41.3782C47.9002 41.3782 41.7236 47.5532 41.7236 55.1719V220.689Z" fill="black"/>
<path d="M96.8975 96.5515V179.311C96.8975 209.687 121.693 234.483 152.069 234.483C182.446 234.483 207.241 209.687 207.241 179.311V96.5515C207.241 66.1749 182.446 41.3796 152.069 41.3796C121.693 41.3796 96.8975 66.1749 96.8975 96.5515ZM179.655 96.5515V179.311C179.655 194.452 167.21 206.897 152.069 206.897C136.929 206.897 124.483 194.452 124.483 179.311V96.5515C124.483 81.4109 136.929 68.9656 152.069 68.9656C167.21 68.9656 179.655 81.4109 179.655 96.5515Z" fill="black"/>
</svg>
