<svg width="580" height="800" viewBox="0 0 580 800" fill="none" xmlns="http://www.w3.org/2000/svg">
<path d="M552.069 0H27.9312C12.6905 0 0.345215 12.3453 0.345215 27.5859V772.414C0.345215 787.655 12.6905 800 27.9312 800H552.069C567.309 800 579.655 787.655 579.655 772.414V27.5859C579.655 12.3453 567.311 0 552.069 0Z" fill="#E6EEF4"/>
<path d="M290 275.862L124.482 482.759L290 689.655L455.517 482.759L290 275.862Z" fill="#D71E00"/>
<path d="M41.7231 220.689C41.7231 228.306 47.8981 234.483 55.5169 234.483C63.1341 234.483 69.3107 228.308 69.3107 220.689V55.1719C69.3107 47.5547 63.1356 41.3781 55.5169 41.3781C47.8997 41.3781 41.7231 47.5531 41.7231 55.1719V220.689Z" fill="#D71E00"/>
<path d="M96.8965 96.5516V179.311C96.8965 209.688 121.692 234.483 152.068 234.483C182.445 234.483 207.24 209.688 207.24 179.311V96.5516C207.24 66.175 182.445 41.3797 152.068 41.3797C121.692 41.3797 96.8965 66.175 96.8965 96.5516ZM179.654 96.5516V179.311C179.654 194.452 167.209 206.897 152.068 206.897C136.928 206.897 124.482 194.452 124.482 179.311V96.5516C124.482 81.4109 136.928 68.9656 152.068 68.9656C167.209 68.9656 179.654 81.4109 179.654 96.5516Z" fill="#D71E00"/>
</svg>
