<svg width="580" height="800" viewBox="0 0 580 800" fill="none" xmlns="http://www.w3.org/2000/svg">
<path d="M552.069 0H27.9312C12.6905 0 0.345215 12.3453 0.345215 27.5859V772.414C0.345215 787.655 12.6905 800 27.9312 800H552.069C567.309 800 579.655 787.655 579.655 772.414V27.5859C579.655 12.3453 567.311 0 552.069 0Z" fill="#E6EEF4"/>
<path d="M41.7231 220.689C41.7231 228.306 47.8981 234.483 55.5169 234.483C63.1341 234.483 69.3107 228.308 69.3107 220.689V55.1719C69.3107 47.5547 63.1356 41.3782 55.5169 41.3782C47.8997 41.3782 41.7231 47.5532 41.7231 55.1719V220.689Z" fill="#D71E00"/>
<path d="M96.8965 96.5515V179.311C96.8965 209.687 121.692 234.483 152.068 234.483C182.445 234.483 207.24 209.687 207.24 179.311V96.5515C207.24 66.1749 182.445 41.3796 152.068 41.3796C121.692 41.3796 96.8965 66.1749 96.8965 96.5515ZM179.654 96.5515V179.311C179.654 194.452 167.209 206.897 152.068 206.897C136.928 206.897 124.482 194.452 124.482 179.311V96.5515C124.482 81.4109 136.928 68.9656 152.068 68.9656C167.209 68.9656 179.654 81.4109 179.654 96.5515Z" fill="#D71E00"/>
<path d="M290 372.414C304.855 334.58 336.289 303.449 375.751 303.449C408.965 303.449 438.565 319.063 458.511 344.828C483.531 377.16 501.214 449.131 446.456 503.891C418.676 531.669 290 662.069 290 662.069C290 662.069 161.323 531.669 133.545 503.889C78.7858 449.13 96.4686 377.158 121.49 344.827C141.436 319.061 171.036 303.447 204.25 303.447C243.711 303.449 275.145 334.58 290 372.414Z" fill="#D71E00"/>
<path d="M69.3107 55.1719C69.3107 47.5547 63.1356 41.3782 55.5169 41.3782C47.8997 41.3782 41.7231 47.5532 41.7231 55.1719V68.9657C41.7231 76.5829 47.8981 82.7594 55.5169 82.7594C63.1341 82.7594 69.3107 76.5844 69.3107 68.9657V55.1719Z" fill="#D71E00"/>
</svg>
