<svg width="580" height="800" viewBox="0 0 580 800" fill="none" xmlns="http://www.w3.org/2000/svg">
<path d="M552.069 0H27.9316C12.691 0 0.345703 12.3453 0.345703 27.5859V772.414C0.345703 787.655 12.691 800 27.9316 800H552.069C567.31 800 579.655 787.655 579.655 772.414V27.5859C579.655 12.3453 567.311 0 552.069 0Z" fill="#E6EEF4"/>
<path d="M41.7236 220.689C41.7236 228.306 47.8986 234.483 55.5174 234.483C63.1346 234.483 69.3111 228.308 69.3111 220.689V55.1719C69.3111 47.5547 63.1361 41.3782 55.5174 41.3782C47.9002 41.3782 41.7236 47.5532 41.7236 55.1719V220.689Z" fill="black"/>
<path d="M96.8975 96.5515V179.311C96.8975 209.687 121.693 234.483 152.069 234.483C182.446 234.483 207.241 209.687 207.241 179.311V96.5515C207.241 66.1749 182.446 41.3796 152.069 41.3796C121.693 41.3796 96.8975 66.1749 96.8975 96.5515ZM179.655 96.5515V179.311C179.655 194.452 167.21 206.897 152.069 206.897C136.929 206.897 124.483 194.452 124.483 179.311V96.5515C124.483 81.4109 136.929 68.9656 152.069 68.9656C167.21 68.9656 179.655 81.4109 179.655 96.5515Z" fill="black"/>
<path d="M331.38 565.517C331.38 565.517 400.635 634.772 455.518 551.724C484.083 508.495 464.718 466.386 434.263 437.283L303.16 308.166C295.78 301.877 284.443 301.877 277.049 308.166L144.043 437.283C117.877 464.663 95.5882 508.386 124.483 551.724C179.655 634.483 248.621 565.517 248.621 565.517C248.621 600.869 238.552 646.303 235.615 658.772C235.215 660.51 236.552 662.069 238.332 662.069H341.683C343.463 662.069 344.787 660.511 344.387 658.786C341.463 646.277 331.38 600.649 331.38 565.517Z" fill="black"/>
<path d="M69.3111 55.1719C69.3111 47.5547 63.1361 41.3782 55.5174 41.3782C47.9002 41.3782 41.7236 47.5532 41.7236 55.1719V68.9657C41.7236 76.5829 47.8986 82.7594 55.5174 82.7594C63.1346 82.7594 69.3111 76.5844 69.3111 68.9657V55.1719Z" fill="black"/>
</svg>
