<svg width="580" height="800" viewBox="0 0 580 800" fill="none" xmlns="http://www.w3.org/2000/svg">
<path d="M552.069 0H27.9312C12.6905 0 0.345215 12.3453 0.345215 27.5859V772.414C0.345215 787.655 12.6905 800 27.9312 800H552.069C567.309 800 579.655 787.655 579.655 772.414V27.5859C579.655 12.3453 567.311 0 552.069 0Z" fill="#E6EEF4"/>
<path d="M331.38 579.311C331.38 613.545 340.814 647.78 344.083 658.58C344.62 660.359 343.269 662.069 341.42 662.069H238.565C236.717 662.069 235.38 660.358 235.903 658.592C239.144 647.738 248.62 613.13 248.62 579.309C234.98 589.186 219.24 594.275 201.875 594.275C151.447 594.275 107.695 551.93 110.855 500.869C112.62 472.152 130.909 447.517 155.269 432.234C179.723 416.883 202.4 415.655 222.675 420.58C209.709 405.228 201.875 385.42 201.875 363.766C201.875 309.338 251.212 266.428 307.598 277.338C342.895 284.152 370.936 313.158 376.867 348.606C381.473 376.109 373.267 401.709 357.336 420.578C377.75 415.627 400.605 416.909 425.253 432.55C449.501 447.944 467.722 472.522 469.39 501.184C472.342 552.108 428.453 594.273 378.136 594.273C361.006 594.277 344.759 588.98 331.38 579.311Z" fill="black"/>
<path d="M124.483 220.689L138.276 206.895H55.5169C47.8997 206.895 41.7231 213.07 41.7231 220.689C41.7231 228.308 47.8981 234.483 55.5169 234.483H138.276C145.893 234.483 152.07 228.308 152.07 220.689V206.895C152.07 199.278 145.895 193.102 138.276 193.102C130.658 193.102 124.483 199.277 124.483 206.895V220.689Z" fill="black"/>
<path d="M133.458 127.319L137.106 123.009L138.056 121.749C160.284 88.4063 137.878 42.0454 97.8154 41.3829L96.8967 41.3813C66.4232 41.3813 41.7248 66.0813 41.7248 96.5532C41.7248 104.17 47.8998 110.347 55.5186 110.347C63.1357 110.347 69.3123 104.172 69.3123 96.5532C69.3123 81.3157 81.6607 68.9673 96.8982 68.9673H97.5873C115.069 69.2595 125.503 90.847 115.104 106.447L126.581 114.099L116.054 105.186L112.4 109.503C85.2404 141.633 62.0123 176.88 43.1842 214.522C39.7764 221.334 42.5373 229.62 49.3498 233.028C56.1623 236.436 64.4483 233.675 67.8561 226.863C85.7014 191.177 107.72 157.766 133.458 127.319Z" fill="black"/>
</svg>
