<svg width="580" height="800" viewBox="0 0 580 800" fill="none" xmlns="http://www.w3.org/2000/svg">
<path d="M552.069 0H27.9312C12.6905 0 0.345215 12.3453 0.345215 27.5859V772.414C0.345215 787.655 12.6905 800 27.9312 800H552.069C567.309 800 579.655 787.655 579.655 772.414V27.5859C579.655 12.3453 567.311 0 552.069 0Z" fill="#E6EEF4"/>
<path d="M331.379 565.517C331.379 565.517 400.634 634.772 455.517 551.724C484.083 508.495 464.717 466.386 434.262 437.283L303.159 308.166C295.779 301.877 284.442 301.877 277.048 308.166L144.042 437.283C117.876 464.663 95.5872 508.386 124.482 551.724C179.654 634.483 248.62 565.517 248.62 565.517C248.62 600.869 238.551 646.303 235.614 658.772C235.214 660.51 236.551 662.069 238.331 662.069H341.682C343.462 662.069 344.786 660.511 344.386 658.786C341.462 646.277 331.379 600.649 331.379 565.517Z" fill="black"/>
<path d="M124.483 220.689L138.276 206.895H55.5169C47.8997 206.895 41.7231 213.07 41.7231 220.689C41.7231 228.308 47.8981 234.483 55.5169 234.483H138.276C145.893 234.483 152.07 228.308 152.07 220.689V206.895C152.07 199.278 145.895 193.102 138.276 193.102C130.658 193.102 124.483 199.277 124.483 206.895V220.689Z" fill="black"/>
<path d="M133.458 127.319L137.106 123.009L138.056 121.749C160.284 88.4063 137.878 42.0454 97.8154 41.3829L96.8967 41.3813C66.4232 41.3813 41.7248 66.0813 41.7248 96.5532C41.7248 104.17 47.8998 110.347 55.5186 110.347C63.1357 110.347 69.3123 104.172 69.3123 96.5532C69.3123 81.3157 81.6607 68.9673 96.8982 68.9673H97.5873C115.069 69.2595 125.503 90.847 115.104 106.447L126.581 114.099L116.054 105.186L112.4 109.503C85.2404 141.633 62.0123 176.88 43.1842 214.522C39.7764 221.334 42.5373 229.62 49.3498 233.028C56.1623 236.436 64.4483 233.675 67.8561 226.863C85.7014 191.177 107.72 157.766 133.458 127.319Z" fill="black"/>
</svg>
