<svg width="580" height="800" viewBox="0 0 580 800" fill="none" xmlns="http://www.w3.org/2000/svg">
<path d="M552.069 0H27.9312C12.6905 0 0.345215 12.3453 0.345215 27.5859V772.414C0.345215 787.655 12.6905 800 27.9312 800H552.069C567.309 800 579.655 787.655 579.655 772.414V27.5859C579.655 12.3453 567.311 0 552.069 0Z" fill="#E6EEF4"/>
<path d="M331.378 579.311C331.378 613.546 340.826 647.78 344.081 658.58C344.619 660.36 343.267 662.069 341.419 662.069H238.564C236.716 662.069 235.378 660.358 235.902 658.592C239.142 647.738 248.619 613.13 248.619 579.31C234.991 589.186 219.239 594.275 201.873 594.275C151.445 594.275 107.694 551.93 110.853 500.869C112.619 472.152 130.908 447.517 155.267 432.235C179.722 416.883 202.398 415.655 222.673 420.58C209.708 405.228 201.873 385.421 201.873 363.766C201.873 309.338 251.211 266.428 307.597 277.338C342.894 284.152 370.948 313.158 376.866 348.607C381.472 376.11 373.266 401.71 357.334 420.578C377.748 415.627 400.603 416.91 425.251 432.55C449.5 447.944 467.72 472.522 469.389 501.185C472.341 552.108 428.451 594.274 378.134 594.274C361.006 594.277 344.758 588.98 331.378 579.311Z" fill="black"/>
<path d="M83.1044 151.724C113.578 151.724 138.276 127.024 138.276 96.5518C138.276 66.0799 113.576 41.3799 83.1044 41.3799C76.7638 41.3799 70.5669 42.4518 64.7013 44.5314C56.495 47.4205 49.3481 52.3752 42.5106 59.2127C37.1247 64.5986 37.1247 73.333 42.5106 78.7189C47.8966 84.1049 56.631 84.1049 62.0169 78.7189C66.1606 74.5752 70.006 71.9096 73.8919 70.5408C76.8341 69.4971 79.9138 68.9658 83.1044 68.9658C98.3419 68.9658 110.69 81.3143 110.69 96.5518C110.69 111.789 98.3419 124.138 83.1044 124.138H69.3528C61.7356 124.138 55.5591 130.313 55.5591 137.931C55.5591 145.549 61.7341 151.725 69.3528 151.725L83.1044 151.724Z" fill="black"/>
<path d="M83.1077 234.48C113.581 234.48 138.28 209.78 138.28 179.308C138.28 148.836 113.58 124.136 83.1077 124.136H69.314C61.6968 124.136 55.5202 130.311 55.5202 137.93C55.5202 145.547 61.6952 151.724 69.314 151.724H83.1077C98.3452 151.724 110.694 164.072 110.694 179.31C110.694 194.547 98.3452 206.896 83.1077 206.896C75.5952 206.896 68.3483 203.485 62.0608 197.197C56.6749 191.811 47.9405 191.811 42.5546 197.197C37.1687 202.583 37.1687 211.317 42.5546 216.703C53.7265 227.875 67.7624 234.48 83.1077 234.48Z" fill="black"/>
</svg>
