<svg width="580" height="800" viewBox="0 0 580 800" fill="none" xmlns="http://www.w3.org/2000/svg">
<path d="M552.069 0H27.9316C12.691 0 0.345703 12.3453 0.345703 27.5859V772.414C0.345703 787.655 12.691 800 27.9316 800H552.069C567.31 800 579.655 787.655 579.655 772.414V27.5859C579.655 12.3453 567.311 0 552.069 0Z" fill="#E6EEF4"/>
<path d="M290.001 275.862L124.483 482.759L290.001 689.655L455.518 482.759L290.001 275.862Z" fill="#D71E00"/>
<path d="M83.1049 151.723C113.578 151.723 138.277 127.023 138.277 96.5515C138.277 66.0796 113.577 41.3796 83.1049 41.3796C76.7643 41.3796 70.5674 42.4515 64.7018 44.5312C56.4955 47.4203 49.3486 52.375 42.5111 59.2125C37.1252 64.5984 37.1252 73.3328 42.5111 78.7187C47.8971 84.1046 56.6314 84.1046 62.0174 78.7187C66.1611 74.575 70.0064 71.9093 73.8924 70.5406C76.8346 69.4968 79.9143 68.9656 83.1049 68.9656C98.3424 68.9656 110.691 81.314 110.691 96.5515C110.691 111.789 98.3424 124.137 83.1049 124.137H69.3533C61.7361 124.137 55.5596 130.312 55.5596 137.931C55.5596 145.548 61.7346 151.725 69.3533 151.725L83.1049 151.723Z" fill="#D71E00"/>
<path d="M83.1082 234.48C113.582 234.48 138.28 209.78 138.28 179.308C138.28 148.836 113.58 124.136 83.1082 124.136H69.3145C61.6973 124.136 55.5207 130.311 55.5207 137.93C55.5207 145.547 61.6957 151.723 69.3145 151.723H83.1082C98.3457 151.723 110.694 164.072 110.694 179.309C110.694 194.547 98.3457 206.895 83.1082 206.895C75.5957 206.895 68.3488 203.484 62.0613 197.197C56.6754 191.811 47.941 191.811 42.5551 197.197C37.1691 202.583 37.1691 211.317 42.5551 216.703C53.727 227.875 67.7629 234.48 83.1082 234.48Z" fill="#D71E00"/>
</svg>
