<svg width="580" height="800" viewBox="0 0 580 800" fill="none" xmlns="http://www.w3.org/2000/svg">
<g clip-path="url(#clip0_3_33)">
<path d="M552.069 0H27.9311C12.6905 0 0.345215 12.3453 0.345215 27.5859V772.414C0.345215 787.655 12.6905 800 27.9311 800H552.069C567.309 800 579.655 787.655 579.655 772.414V27.5859C579.655 12.3453 567.311 0 552.069 0Z" fill="#E6EEF4"/>
<path d="M83.1049 151.723C113.578 151.723 138.277 127.023 138.277 96.5518C138.277 66.0799 113.577 41.3799 83.1049 41.3799C76.7642 41.3799 70.5674 42.4518 64.7017 44.5314C56.4955 47.4205 49.3486 52.3752 42.5111 59.2127C37.1252 64.5986 37.1252 73.333 42.5111 78.7189C47.8971 84.1049 56.6314 84.1049 62.0174 78.7189C66.1611 74.5752 70.0064 71.9096 73.8924 70.5408C76.8346 69.4971 79.9142 68.9658 83.1049 68.9658C98.3424 68.9658 110.691 81.3143 110.691 96.5518C110.691 111.789 98.3424 124.137 83.1049 124.137H69.3533C61.7361 124.137 55.5596 130.312 55.5596 137.931C55.5596 145.548 61.7346 151.725 69.3533 151.725L83.1049 151.723Z" fill="#D71E00"/>
<path d="M83.1077 234.48C113.581 234.48 138.28 209.78 138.28 179.308C138.28 148.836 113.58 124.136 83.1077 124.136H69.314C61.6968 124.136 55.5202 130.311 55.5202 137.93C55.5202 145.547 61.6952 151.723 69.314 151.723H83.1077C98.3452 151.723 110.694 164.072 110.694 179.309C110.694 194.547 98.3452 206.895 83.1077 206.895C75.5952 206.895 68.3483 203.484 62.0608 197.197C56.6749 191.811 47.9405 191.811 42.5546 197.197C37.1686 202.583 37.1686 211.317 42.5546 216.703C53.7265 227.875 67.7624 234.48 83.1077 234.48Z" fill="#D71E00"/>
<path d="M287 372.414C301.855 334.58 333.289 303.448 372.752 303.448C405.966 303.448 435.566 319.063 455.511 344.828C480.531 377.159 498.214 449.131 443.456 503.891C415.677 531.669 287 662.069 287 662.069C287 662.069 158.323 531.669 130.545 503.889C75.7858 449.13 93.4686 377.158 118.491 344.827C138.436 319.061 168.036 303.447 201.25 303.447C240.711 303.448 272.145 334.58 287 372.414Z" fill="#D71E00"/>
</g>
<defs>
<clipPath id="clip0_3_33">
<rect width="580" height="800" fill="white"/>
</clipPath>
</defs>
</svg>
