<svg width="580" height="800" viewBox="0 0 580 800" fill="none" xmlns="http://www.w3.org/2000/svg">
<path d="M552.069 0H27.9316C12.691 0 0.345703 12.3453 0.345703 27.5859V772.414C0.345703 787.655 12.691 800 27.9316 800H552.069C567.31 800 579.655 787.655 579.655 772.414V27.5859C579.655 12.3453 567.311 0 552.069 0Z" fill="#E6EEF4"/>
<path d="M331.38 565.517C331.38 565.517 400.635 634.772 455.518 551.724C484.083 508.495 464.718 466.386 434.263 437.283L303.16 308.166C295.78 301.877 284.443 301.877 277.049 308.166L144.043 437.283C117.877 464.663 95.5882 508.386 124.483 551.724C179.655 634.483 248.621 565.517 248.621 565.517C248.621 600.869 238.552 646.303 235.615 658.772C235.215 660.51 236.552 662.069 238.332 662.069H341.683C343.463 662.069 344.787 660.511 344.387 658.786C341.463 646.277 331.38 600.649 331.38 565.517Z" fill="black"/>
<path d="M83.1049 151.724C113.578 151.724 138.277 127.024 138.277 96.5518C138.277 66.0799 113.577 41.3799 83.1049 41.3799C76.7643 41.3799 70.5674 42.4518 64.7018 44.5314C56.4955 47.4205 49.3486 52.3752 42.5111 59.2127C37.1252 64.5986 37.1252 73.333 42.5111 78.7189C47.8971 84.1049 56.6314 84.1049 62.0174 78.7189C66.1611 74.5752 70.0064 71.9096 73.8924 70.5408C76.8346 69.4971 79.9143 68.9658 83.1049 68.9658C98.3424 68.9658 110.691 81.3143 110.691 96.5518C110.691 111.789 98.3424 124.138 83.1049 124.138H69.3533C61.7361 124.138 55.5596 130.313 55.5596 137.931C55.5596 145.549 61.7346 151.725 69.3533 151.725L83.1049 151.724Z" fill="black"/>
<path d="M83.1082 234.48C113.582 234.48 138.28 209.78 138.28 179.308C138.28 148.836 113.58 124.136 83.1082 124.136H69.3145C61.6973 124.136 55.5207 130.311 55.5207 137.93C55.5207 145.547 61.6957 151.724 69.3145 151.724H83.1082C98.3457 151.724 110.694 164.072 110.694 179.31C110.694 194.547 98.3457 206.896 83.1082 206.896C75.5957 206.896 68.3488 203.485 62.0613 197.197C56.6754 191.811 47.941 191.811 42.5551 197.197C37.1691 202.583 37.1691 211.317 42.5551 216.703C53.727 227.875 67.7629 234.48 83.1082 234.48Z" fill="black"/>
</svg>
