<svg width="580" height="800" viewBox="0 0 580 800" fill="none" xmlns="http://www.w3.org/2000/svg">
<path d="M552.069 0H27.9312C12.6905 0 0.345215 12.3453 0.345215 27.5859V772.414C0.345215 787.655 12.6905 800 27.9312 800H552.069C567.309 800 579.655 787.655 579.655 772.414V27.5859C579.655 12.3453 567.311 0 552.069 0Z" fill="#E6EEF4"/>
<path d="M331.38 579.311C331.38 613.545 340.814 647.779 344.083 658.579C344.62 660.359 343.269 662.069 341.42 662.069H238.565C236.717 662.069 235.38 660.358 235.903 658.592C239.144 647.737 248.62 613.129 248.62 579.309C234.992 589.186 219.24 594.275 201.875 594.275C151.447 594.275 107.695 551.929 110.855 500.869C112.62 472.151 130.909 447.517 155.269 432.234C179.723 416.883 202.4 415.654 222.675 420.579C209.709 405.228 201.875 385.42 201.875 363.765C201.875 309.337 251.212 266.428 307.598 277.337C342.895 284.151 370.936 313.158 376.867 348.606C381.473 376.109 373.267 401.709 357.336 420.578C377.75 415.626 400.605 416.909 425.253 432.55C449.501 447.944 467.722 472.522 469.39 501.184C472.342 552.108 428.453 594.273 378.136 594.273C361.006 594.276 344.759 588.979 331.38 579.311Z" fill="black"/>
<path d="M44.4825 157.241C39.9122 163.334 41.1466 171.98 47.2419 176.551C53.3356 181.122 61.9809 179.887 66.5528 173.792L149.312 63.4468C153.883 57.353 152.648 48.7077 146.553 44.1358C140.459 39.5655 131.814 40.7999 127.242 46.8952L44.4825 157.241Z" fill="black"/>
<path d="M124.482 220.689C124.482 228.306 130.657 234.483 138.276 234.483C145.895 234.483 152.07 228.308 152.07 220.689V55.1717C152.07 47.5545 145.895 41.3779 138.276 41.3779C130.657 41.3779 124.482 47.5529 124.482 55.1717V220.689Z" fill="black"/>
<path d="M55.5169 151.723C47.8997 151.723 41.7231 157.898 41.7231 165.517C41.7231 173.134 47.8981 179.311 55.5169 179.311H165.862C173.479 179.311 179.656 173.136 179.656 165.517C179.656 157.9 173.481 151.723 165.862 151.723H55.5169Z" fill="black"/>
<path d="M165.862 234.483C173.479 234.483 179.656 228.308 179.656 220.689C179.656 213.07 173.481 206.895 165.862 206.895H110.69C103.073 206.895 96.8965 213.07 96.8965 220.689C96.8965 228.308 103.071 234.483 110.69 234.483H165.862Z" fill="black"/>
</svg>
