<svg width="580" height="800" viewBox="0 0 580 800" fill="none" xmlns="http://www.w3.org/2000/svg">
<path d="M552.069 0H27.9316C12.691 0 0.345703 12.3453 0.345703 27.5859V772.414C0.345703 787.655 12.691 800 27.9316 800H552.069C567.31 800 579.655 787.655 579.655 772.414V27.5859C579.655 12.3453 567.311 0 552.069 0Z" fill="#E6EEF4"/>
<path d="M290.001 275.862L124.483 482.759L290.001 689.655L455.518 482.759L290.001 275.862Z" fill="#D71E00"/>
<path d="M44.483 157.241C39.9127 163.334 41.1471 171.98 47.2424 176.552C53.3361 181.122 61.9814 179.888 66.5533 173.792L149.313 63.4469C153.883 57.3531 152.649 48.7078 146.553 44.1359C140.46 39.5656 131.814 40.8 127.242 46.8953L44.483 157.241Z" fill="#D71E00"/>
<path d="M124.483 220.689C124.483 228.306 130.658 234.483 138.277 234.483C145.896 234.483 152.071 228.308 152.071 220.689V55.1719C152.071 47.5547 145.896 41.3781 138.277 41.3781C130.658 41.3781 124.483 47.5531 124.483 55.1719V220.689Z" fill="#D71E00"/>
<path d="M55.5174 151.723C47.9002 151.723 41.7236 157.898 41.7236 165.517C41.7236 173.134 47.8986 179.311 55.5174 179.311H165.863C173.48 179.311 179.656 173.136 179.656 165.517C179.656 157.9 173.481 151.723 165.863 151.723H55.5174Z" fill="#D71E00"/>
<path d="M165.863 234.483C173.48 234.483 179.657 228.308 179.657 220.689C179.657 213.07 173.482 206.895 165.863 206.895H110.691C103.074 206.895 96.8975 213.07 96.8975 220.689C96.8975 228.308 103.072 234.483 110.691 234.483H165.863Z" fill="#D71E00"/>
</svg>
