<svg width="580" height="800" viewBox="0 0 580 800" fill="none" xmlns="http://www.w3.org/2000/svg">
<g clip-path="url(#clip0_3_103)">
<path d="M552.069 0H27.9317C12.691 0 0.345703 12.3453 0.345703 27.5859V772.414C0.345703 787.655 12.691 800 27.9317 800H552.069C567.309 800 579.655 787.655 579.655 772.414V27.5859C579.655 12.3453 567.311 0 552.069 0Z" fill="#E6EEF4"/>
<path d="M44.483 157.241C39.9127 163.334 41.1471 171.98 47.2424 176.552C53.3361 181.122 61.9814 179.888 66.5533 173.792L149.313 63.4468C153.883 57.353 152.648 48.7077 146.553 44.1358C140.459 39.5655 131.814 40.7999 127.242 46.8952L44.483 157.241Z" fill="#D71E00"/>
<path d="M124.483 220.689C124.483 228.306 130.658 234.483 138.277 234.483C145.895 234.483 152.07 228.308 152.07 220.689V55.1719C152.07 47.5547 145.895 41.3782 138.277 41.3782C130.658 41.3782 124.483 47.5532 124.483 55.1719V220.689Z" fill="#D71E00"/>
<path d="M55.5174 151.723C47.9002 151.723 41.7236 157.898 41.7236 165.517C41.7236 173.134 47.8987 179.311 55.5174 179.311H165.863C173.48 179.311 179.656 173.136 179.656 165.517C179.656 157.9 173.481 151.723 165.863 151.723H55.5174Z" fill="#D71E00"/>
<path d="M165.863 234.483C173.48 234.483 179.656 228.308 179.656 220.689C179.656 213.07 173.481 206.895 165.863 206.895H110.691C103.073 206.895 96.8965 213.07 96.8965 220.689C96.8965 228.308 103.072 234.483 110.691 234.483H165.863Z" fill="#D71E00"/>
<path d="M290 372.414C304.855 334.58 336.289 303.448 375.752 303.448C408.966 303.448 438.566 319.063 458.511 344.828C483.531 377.159 501.214 449.131 446.456 503.891C418.677 531.669 290 662.069 290 662.069C290 662.069 161.323 531.669 133.545 503.889C78.7863 449.13 96.4691 377.158 121.491 344.827C141.436 319.061 171.036 303.447 204.25 303.447C243.711 303.448 275.145 334.58 290 372.414Z" fill="#D71E00"/>
</g>
<defs>
<clipPath id="clip0_3_103">
<rect width="580" height="800" fill="white"/>
</clipPath>
</defs>
</svg>
