<svg width="580" height="800" viewBox="0 0 580 800" fill="none" xmlns="http://www.w3.org/2000/svg">
<path d="M552.069 0H27.9312C12.6905 0 0.345215 12.3453 0.345215 27.5859V772.414C0.345215 787.655 12.6905 800 27.9312 800H552.069C567.309 800 579.655 787.655 579.655 772.414V27.5859C579.655 12.3453 567.311 0 552.069 0Z" fill="#E6EEF4"/>
<path d="M331.378 579.311C331.378 613.545 340.826 647.779 344.081 658.579C344.619 660.359 343.267 662.069 341.419 662.069H238.564C236.716 662.069 235.378 660.358 235.902 658.592C239.142 647.737 248.619 613.129 248.619 579.309C234.991 589.186 219.239 594.275 201.873 594.275C151.445 594.275 107.694 551.929 110.853 500.869C112.619 472.151 130.908 447.517 155.267 432.234C179.722 416.883 202.398 415.654 222.673 420.579C209.708 405.228 201.873 385.42 201.873 363.765C201.873 309.337 251.211 266.428 307.597 277.337C342.894 284.151 370.948 313.158 376.866 348.606C381.472 376.109 373.266 401.709 357.334 420.578C377.748 415.626 400.603 416.909 425.251 432.55C449.5 447.944 467.72 472.522 469.389 501.184C472.341 552.108 428.451 594.273 378.134 594.273C361.006 594.276 344.758 588.979 331.378 579.311Z" fill="black"/>
<path d="M124.483 68.9654C132.1 68.9654 138.276 62.7904 138.276 55.1717C138.276 47.5529 132.101 41.3779 124.483 41.3779H55.5169C47.8997 41.3779 41.7231 47.5529 41.7231 55.1717C41.7231 62.7904 47.8981 68.9654 55.5169 68.9654H124.483Z" fill="black"/>
<path d="M41.7231 124.137C41.7231 131.754 47.8981 137.931 55.5169 137.931C63.1341 137.931 69.3107 131.756 69.3107 124.137V55.1717C69.3107 47.5545 63.1356 41.3779 55.5169 41.3779C47.8997 41.3779 41.7231 47.5529 41.7231 55.1717V124.137Z" fill="black"/>
<path d="M87.7105 209.962C119.025 209.962 144.414 184.573 144.414 153.259C144.414 121.945 119.025 96.5562 87.7105 96.5562C71.2339 96.5562 55.8589 103.639 45.1745 115.748C40.1339 121.461 40.6792 130.176 46.3917 135.217C52.1042 140.258 60.8198 139.712 65.8605 134C71.3589 127.769 79.2292 124.144 87.7105 124.144C103.789 124.144 116.828 137.183 116.828 153.261C116.828 169.339 103.789 182.378 87.7105 182.378C79.2292 182.378 71.3683 178.75 65.8605 172.508C60.8198 166.795 52.1042 166.251 46.3917 171.291C40.6792 176.331 40.1354 185.047 45.1745 190.759C55.8636 202.873 71.2276 209.962 87.7105 209.962Z" fill="black"/>
</svg>
