<svg width="580" height="800" viewBox="0 0 580 800" fill="none" xmlns="http://www.w3.org/2000/svg">
<path d="M552.069 0H27.9312C12.6905 0 0.345215 12.3453 0.345215 27.5859V772.414C0.345215 787.655 12.6905 800 27.9312 800H552.069C567.309 800 579.655 787.655 579.655 772.414V27.5859C579.655 12.3453 567.311 0 552.069 0Z" fill="#E6EEF4"/>
<path d="M290 275.862L124.482 482.759L290 689.655L455.517 482.759L290 275.862Z" fill="#D71E00"/>
<path d="M124.483 68.9656C132.1 68.9656 138.276 62.7906 138.276 55.1719C138.276 47.5531 132.101 41.3781 124.483 41.3781H55.5169C47.8997 41.3781 41.7231 47.5531 41.7231 55.1719C41.7231 62.7906 47.8981 68.9656 55.5169 68.9656H124.483Z" fill="#D71E00"/>
<path d="M41.7231 124.137C41.7231 131.755 47.8981 137.931 55.5169 137.931C63.1341 137.931 69.3107 131.756 69.3107 124.137V55.1719C69.3107 47.5547 63.1356 41.3781 55.5169 41.3781C47.8997 41.3781 41.7231 47.5531 41.7231 55.1719V124.137Z" fill="#D71E00"/>
<path d="M87.7105 209.962C119.025 209.962 144.414 184.573 144.414 153.259C144.414 121.945 119.025 96.5562 87.7105 96.5562C71.2339 96.5562 55.8589 103.639 45.1745 115.748C40.1339 121.461 40.6792 130.177 46.3917 135.217C52.1042 140.258 60.8198 139.712 65.8605 134C71.3589 127.769 79.2292 124.144 87.7105 124.144C103.789 124.144 116.828 137.183 116.828 153.261C116.828 169.339 103.789 182.378 87.7105 182.378C79.2292 182.378 71.3683 178.75 65.8605 172.508C60.8198 166.795 52.1042 166.252 46.3917 171.291C40.6792 176.331 40.1354 185.047 45.1745 190.759C55.8636 202.873 71.2276 209.962 87.7105 209.962Z" fill="#D71E00"/>
</svg>
