<svg width="580" height="800" viewBox="0 0 580 800" fill="none" xmlns="http://www.w3.org/2000/svg">
<g clip-path="url(#clip0_3_45)">
<path d="M552.069 0H27.9317C12.691 0 0.345703 12.3453 0.345703 27.5859V772.414C0.345703 787.655 12.691 800 27.9317 800H552.069C567.309 800 579.655 787.655 579.655 772.414V27.5859C579.655 12.3453 567.311 0 552.069 0Z" fill="#E6EEF4"/>
<path d="M124.483 68.9654C132.1 68.9654 138.277 62.7904 138.277 55.1717C138.277 47.5529 132.102 41.3779 124.483 41.3779H55.5174C47.9002 41.3779 41.7236 47.5529 41.7236 55.1717C41.7236 62.7904 47.8986 68.9654 55.5174 68.9654H124.483Z" fill="#D71E00"/>
<path d="M41.7236 124.137C41.7236 131.755 47.8986 137.931 55.5174 137.931C63.1346 137.931 69.3111 131.756 69.3111 124.137V55.1717C69.3111 47.5545 63.1361 41.3779 55.5174 41.3779C47.9002 41.3779 41.7236 47.5529 41.7236 55.1717V124.137Z" fill="#D71E00"/>
<path d="M87.7114 209.963C119.025 209.963 144.414 184.573 144.414 153.259C144.414 121.945 119.025 96.5564 87.7114 96.5564C71.2349 96.5564 55.8599 103.639 45.1755 115.748C40.1349 121.461 40.6802 130.177 46.3927 135.217C52.1052 140.258 60.8208 139.713 65.8614 134C71.3599 127.769 79.2302 124.144 87.7114 124.144C103.789 124.144 116.828 137.183 116.828 153.261C116.828 169.339 103.789 182.378 87.7114 182.378C79.2302 182.378 71.3693 178.75 65.8614 172.508C60.8208 166.795 52.1052 166.252 46.3927 171.291C40.6802 176.331 40.1364 185.047 45.1755 190.759C55.8646 202.873 71.2286 209.963 87.7114 209.963Z" fill="#D71E00"/>
<path d="M290 372.414C304.855 334.58 336.289 303.448 375.752 303.448C408.966 303.448 438.566 319.062 458.511 344.828C483.531 377.159 501.214 449.131 446.456 503.891C418.677 531.669 290 662.069 290 662.069C290 662.069 161.324 531.669 133.545 503.889C78.7863 449.13 96.4692 377.158 121.491 344.827C141.436 319.061 171.036 303.447 204.25 303.447C243.711 303.448 275.145 334.58 290 372.414Z" fill="#D71E00"/>
</g>
<defs>
<clipPath id="clip0_3_45">
<rect width="580" height="800" fill="white"/>
</clipPath>
</defs>
</svg>
