<svg width="580" height="800" viewBox="0 0 580 800" fill="none" xmlns="http://www.w3.org/2000/svg">
<path d="M552.069 0H27.9313C12.6906 0 0.345337 12.3453 0.345337 27.5859V772.414C0.345337 787.655 12.6906 800 27.9313 800H552.069C567.309 800 579.655 787.655 579.655 772.414V27.5859C579.655 12.3453 567.311 0 552.069 0Z" fill="#E6EEF4"/>
<path d="M124.483 68.9656C132.1 68.9656 138.277 62.7906 138.277 55.1719C138.277 47.5531 132.102 41.3781 124.483 41.3781H55.5173C47.9001 41.3781 41.7235 47.5531 41.7235 55.1719C41.7235 62.7906 47.8985 68.9656 55.5173 68.9656H124.483Z" fill="#D71E00"/>
<path d="M41.7235 124.137C41.7235 131.755 47.8985 137.931 55.5173 137.931C63.1345 137.931 69.311 131.756 69.311 124.137V55.1719C69.311 47.5547 63.136 41.3781 55.5173 41.3781C47.9001 41.3781 41.7235 47.5531 41.7235 55.1719V124.137Z" fill="#D71E00"/>
<path d="M87.7109 209.963C119.025 209.963 144.414 184.573 144.414 153.259C144.414 121.945 119.025 96.5563 87.7109 96.5563C71.2344 96.5563 55.8594 103.639 45.175 115.748C40.1344 121.461 40.6797 130.177 46.3922 135.217C52.1047 140.258 60.8203 139.713 65.8609 134C71.3594 127.769 79.2297 124.144 87.7109 124.144C103.789 124.144 116.828 137.183 116.828 153.261C116.828 169.339 103.789 182.378 87.7109 182.378C79.2297 182.378 71.3688 178.75 65.8609 172.508C60.8203 166.795 52.1047 166.252 46.3922 171.291C40.6797 176.331 40.1359 185.047 45.175 190.759C55.8641 202.873 71.2281 209.963 87.7109 209.963Z" fill="#D71E00"/>
<path d="M290 372.414C304.855 334.58 336.289 303.448 375.752 303.448C408.966 303.448 438.566 319.062 458.511 344.828C483.531 377.159 501.214 449.131 446.456 503.891C418.677 531.669 290 662.069 290 662.069C290 662.069 161.324 531.669 133.545 503.889C78.786 449.13 96.4689 377.158 121.491 344.827C141.436 319.061 171.036 303.447 204.25 303.447C243.711 303.448 275.145 334.58 290 372.414Z" fill="#D71E00"/>
</svg>
