<svg width="580" height="800" viewBox="0 0 580 800" fill="none" xmlns="http://www.w3.org/2000/svg">
<path d="M552.069 0H27.9312C12.6905 0 0.345215 12.3453 0.345215 27.5859V772.414C0.345215 787.655 12.6905 800 27.9312 800H552.069C567.309 800 579.655 787.655 579.655 772.414V27.5859C579.655 12.3453 567.311 0 552.069 0Z" fill="#E6EEF4"/>
<path d="M124.483 68.9657C132.1 68.9657 138.276 62.7907 138.276 55.1719C138.276 47.5532 132.101 41.3782 124.483 41.3782H55.5169C47.8997 41.3782 41.7231 47.5532 41.7231 55.1719C41.7231 62.7907 47.8981 68.9657 55.5169 68.9657H124.483Z" fill="black"/>
<path d="M41.7231 124.138C41.7231 131.755 47.8981 137.931 55.5169 137.931C63.1341 137.931 69.3107 131.756 69.3107 124.138V55.1719C69.3107 47.5547 63.1356 41.3782 55.5169 41.3782C47.8997 41.3782 41.7231 47.5532 41.7231 55.1719V124.138Z" fill="black"/>
<path d="M87.7105 209.963C119.025 209.963 144.414 184.574 144.414 153.26C144.414 121.945 119.025 96.5564 87.7105 96.5564C71.2339 96.5564 55.8589 103.639 45.1745 115.749C40.1339 121.461 40.6792 130.177 46.3917 135.217C52.1042 140.258 60.8198 139.713 65.8605 134C71.3589 127.769 79.2292 124.144 87.7105 124.144C103.789 124.144 116.828 137.183 116.828 153.261C116.828 169.339 103.789 182.378 87.7105 182.378C79.2292 182.378 71.3683 178.75 65.8605 172.508C60.8198 166.795 52.1042 166.252 46.3917 171.291C40.6792 176.331 40.1354 185.047 45.1745 190.76C55.8636 202.874 71.2276 209.963 87.7105 209.963Z" fill="black"/>
<path d="M331.379 565.517C331.379 565.517 400.634 634.772 455.517 551.724C484.083 508.495 464.717 466.386 434.262 437.283L303.159 308.166C295.779 301.877 284.442 301.877 277.048 308.166L144.042 437.283C117.876 464.663 95.5872 508.386 124.482 551.724C179.654 634.483 248.62 565.517 248.62 565.517C248.62 600.869 238.551 646.303 235.614 658.772C235.214 660.51 236.551 662.069 238.331 662.069H341.682C343.462 662.069 344.786 660.511 344.386 658.786C341.462 646.277 331.379 600.649 331.379 565.517Z" fill="black"/>
</svg>
