<svg width="580" height="800" viewBox="0 0 580 800" fill="none" xmlns="http://www.w3.org/2000/svg">
<path d="M552.069 0H27.9316C12.691 0 0.345703 12.3453 0.345703 27.5859V772.414C0.345703 787.655 12.691 800 27.9316 800H552.069C567.31 800 579.655 787.655 579.655 772.414V27.5859C579.655 12.3453 567.311 0 552.069 0Z" fill="#E6EEF4"/>
<path d="M331.38 579.311C331.38 613.545 340.815 647.78 344.084 658.58C344.621 660.359 343.27 662.069 341.421 662.069H238.566C236.718 662.069 235.381 660.358 235.904 658.592C239.145 647.738 248.621 613.13 248.621 579.309C234.993 589.186 219.241 594.275 201.876 594.275C151.448 594.275 107.696 551.93 110.855 500.869C112.621 472.152 130.91 447.517 155.27 432.234C179.724 416.883 202.401 415.655 222.676 420.58C209.71 405.228 201.876 385.42 201.876 363.766C201.876 309.338 251.213 266.428 307.599 277.338C342.896 284.152 370.937 313.158 376.868 348.606C381.474 376.109 373.268 401.709 357.337 420.578C377.751 415.627 400.606 416.909 425.254 432.55C449.502 447.944 467.723 472.522 469.391 501.184C472.343 552.108 428.454 594.273 378.137 594.273C361.007 594.277 344.76 588.98 331.38 579.311Z" fill="black"/>
<path d="M96.8975 220.689C127.371 220.689 152.069 195.989 152.069 165.517C152.069 135.045 127.369 110.345 96.8975 110.345C66.4256 110.345 41.7256 135.045 41.7256 165.517C41.7256 195.989 66.424 220.689 96.8975 220.689ZM96.8975 137.931C112.135 137.931 124.483 150.28 124.483 165.517C124.483 180.755 112.135 193.103 96.8975 193.103C81.66 193.103 69.3115 180.755 69.3115 165.517C69.3115 150.28 81.66 137.931 96.8975 137.931Z" fill="black"/>
<path d="M138.277 68.9657C145.894 68.9657 152.071 62.7907 152.071 55.1719C152.071 47.5532 145.896 41.3782 138.277 41.3782C82.024 41.3782 41.7256 92.5407 41.7256 165.516C41.7256 173.133 47.9006 179.309 55.5193 179.309C63.1365 179.309 69.3131 173.134 69.3131 165.516C69.3115 106.528 98.8975 68.9657 138.277 68.9657Z" fill="black"/>
</svg>
