<svg width="580" height="800" viewBox="0 0 580 800" fill="none" xmlns="http://www.w3.org/2000/svg">
<path d="M552.069 0H27.9312C12.6905 0 0.345215 12.3453 0.345215 27.5859V772.414C0.345215 787.655 12.6905 800 27.9312 800H552.069C567.309 800 579.655 787.655 579.655 772.414V27.5859C579.655 12.3453 567.311 0 552.069 0Z" fill="#E6EEF4"/>
<path d="M331.38 565.517C331.38 565.517 400.635 634.772 455.517 551.723C484.083 508.495 464.717 466.386 434.263 437.283L303.16 308.166C295.78 301.877 284.442 301.877 277.049 308.166L144.042 437.283C117.877 464.662 95.5877 508.386 124.483 551.723C179.655 634.483 248.62 565.517 248.62 565.517C248.62 600.869 238.552 646.303 235.614 658.772C235.214 660.509 236.552 662.069 238.331 662.069H341.683C343.463 662.069 344.786 660.511 344.386 658.786C341.463 646.277 331.38 600.648 331.38 565.517Z" fill="black"/>
<path d="M96.897 220.689C127.37 220.689 152.069 195.989 152.069 165.517C152.069 135.045 127.369 110.345 96.897 110.345C66.4251 110.345 41.7251 135.045 41.7251 165.517C41.7251 195.989 66.4235 220.689 96.897 220.689ZM96.897 137.931C112.134 137.931 124.483 150.28 124.483 165.517C124.483 180.755 112.134 193.103 96.897 193.103C81.6595 193.103 69.311 180.755 69.311 165.517C69.311 150.28 81.6595 137.931 96.897 137.931Z" fill="black"/>
<path d="M138.277 68.9656C145.894 68.9656 152.07 62.7906 152.07 55.1719C152.07 47.5531 145.895 41.3781 138.277 41.3781C82.0235 41.3781 41.7251 92.5406 41.7251 165.516C41.7251 173.133 47.9001 179.309 55.5189 179.309C63.136 179.309 69.3126 173.134 69.3126 165.516C69.311 106.528 98.897 68.9656 138.277 68.9656Z" fill="black"/>
</svg>
