<svg width="580" height="800" viewBox="0 0 580 800" fill="none" xmlns="http://www.w3.org/2000/svg">
<path d="M552.069 0H27.9312C12.6905 0 0.345215 12.3453 0.345215 27.5859V772.414C0.345215 787.655 12.6905 800 27.9312 800H552.069C567.309 800 579.655 787.655 579.655 772.414V27.5859C579.655 12.3453 567.311 0 552.069 0Z" fill="#E6EEF4"/>
<path d="M331.38 579.311C331.38 613.545 340.814 647.78 344.083 658.58C344.62 660.359 343.269 662.069 341.42 662.069H238.565C236.717 662.069 235.38 660.358 235.903 658.592C239.144 647.738 248.62 613.13 248.62 579.309C234.98 589.186 219.24 594.275 201.875 594.275C151.447 594.275 107.695 551.93 110.855 500.869C112.62 472.152 130.909 447.517 155.269 432.234C179.723 416.883 202.4 415.655 222.675 420.58C209.709 405.228 201.875 385.42 201.875 363.766C201.875 309.338 251.212 266.428 307.598 277.338C342.895 284.152 370.936 313.158 376.867 348.606C381.473 376.109 373.267 401.709 357.336 420.578C377.75 415.627 400.605 416.909 425.253 432.55C449.501 447.944 467.722 472.522 469.39 501.184C472.342 552.108 428.453 594.273 378.136 594.273C361.006 594.277 344.759 588.98 331.38 579.311Z" fill="black"/>
<path d="M138.276 68.9657C145.893 68.9657 152.07 62.7907 152.07 55.1719C152.07 47.5532 145.895 41.3782 138.276 41.3782H55.5169C47.8997 41.3782 41.7231 47.5532 41.7231 55.1719C41.7231 62.7907 47.8981 68.9657 55.5169 68.9657H138.276Z" fill="black"/>
<path d="M69.3107 55.1719C69.3107 47.5547 63.1356 41.3782 55.5169 41.3782C47.8997 41.3782 41.7231 47.5532 41.7231 55.1719V68.9657C41.7231 76.5829 47.8981 82.7594 55.5169 82.7594C63.1341 82.7594 69.3107 76.5844 69.3107 68.9657V55.1719Z" fill="black"/>
<path d="M69.5015 190.816C68.2374 198.328 73.3031 205.442 80.8156 206.706C88.3281 207.97 95.4421 202.905 96.7062 195.392C106.309 138.309 117.181 111.695 149.755 62.8219C153.98 56.4829 152.266 47.9188 145.926 43.6954C139.587 39.4719 131.023 41.1844 126.8 47.5235C92.1218 99.5532 79.7671 129.797 69.5015 190.816Z" fill="black"/>
</svg>
