<svg width="580" height="800" viewBox="0 0 580 800" fill="none" xmlns="http://www.w3.org/2000/svg">
<path d="M552.069 0H27.9316C12.691 0 0.345703 12.3453 0.345703 27.5859V772.414C0.345703 787.655 12.691 800 27.9316 800H552.069C567.31 800 579.655 787.655 579.655 772.414V27.5859C579.655 12.3453 567.311 0 552.069 0Z" fill="#E6EEF4"/>
<path d="M290.001 275.862L124.483 482.759L290.001 689.655L455.518 482.759L290.001 275.862Z" fill="#D71E00"/>
<path d="M138.277 68.9656C145.894 68.9656 152.071 62.7906 152.071 55.1719C152.071 47.5531 145.896 41.3781 138.277 41.3781H55.5174C47.9002 41.3781 41.7236 47.5531 41.7236 55.1719C41.7236 62.7906 47.8986 68.9656 55.5174 68.9656H138.277Z" fill="#D71E00"/>
<path d="M69.3111 55.1719C69.3111 47.5547 63.1361 41.3781 55.5174 41.3781C47.9002 41.3781 41.7236 47.5531 41.7236 55.1719V68.9656C41.7236 76.5828 47.8986 82.7594 55.5174 82.7594C63.1346 82.7594 69.3111 76.5844 69.3111 68.9656V55.1719Z" fill="#D71E00"/>
<path d="M69.502 190.816C68.2379 198.328 73.3035 205.442 80.816 206.706C88.3285 207.97 95.4426 202.905 96.7067 195.392C106.31 138.309 117.182 111.695 149.755 62.8219C153.98 56.4828 152.266 47.9188 145.927 43.6953C139.588 39.4719 131.024 41.1844 126.8 47.5234C92.1223 99.5531 79.7676 129.797 69.502 190.816Z" fill="#D71E00"/>
</svg>
