<svg width="580" height="800" viewBox="0 0 580 800" fill="none" xmlns="http://www.w3.org/2000/svg">
<path d="M552.069 0H27.9312C12.6905 0 0.345215 12.3453 0.345215 27.5859V772.414C0.345215 787.655 12.6905 800 27.9312 800H552.069C567.309 800 579.655 787.655 579.655 772.414V27.5859C579.655 12.3453 567.311 0 552.069 0Z" fill="#E6EEF4"/>
<path d="M290 372.414C304.855 334.58 336.289 303.448 375.751 303.448C408.965 303.448 438.565 319.063 458.511 344.828C483.531 377.159 501.214 449.131 446.456 503.891C418.676 531.669 290 662.069 290 662.069C290 662.069 161.323 531.669 133.545 503.889C78.7858 449.13 96.4686 377.158 121.49 344.827C141.436 319.061 171.036 303.447 204.25 303.447C243.711 303.448 275.145 334.58 290 372.414Z" fill="#D71E00"/>
<path d="M138.276 68.9657C145.893 68.9657 152.07 62.7907 152.07 55.1719C152.07 47.5532 145.895 41.3782 138.276 41.3782H55.5169C47.8997 41.3782 41.7231 47.5532 41.7231 55.1719C41.7231 62.7907 47.8981 68.9657 55.5169 68.9657H138.276Z" fill="#D71E00"/>
<path d="M69.3107 55.1719C69.3107 47.5547 63.1356 41.3782 55.5169 41.3782C47.8997 41.3782 41.7231 47.5532 41.7231 55.1719V68.9657C41.7231 76.5829 47.8981 82.7594 55.5169 82.7594C63.1341 82.7594 69.3107 76.5844 69.3107 68.9657V55.1719Z" fill="#D71E00"/>
<path d="M69.5015 190.816C68.2374 198.328 73.3031 205.442 80.8156 206.706C88.3281 207.97 95.4421 202.905 96.7062 195.392C106.309 138.309 117.181 111.695 149.755 62.8219C153.98 56.4829 152.266 47.9188 145.926 43.6954C139.587 39.4719 131.023 41.1844 126.8 47.5235C92.1218 99.5532 79.7671 129.797 69.5015 190.816Z" fill="#D71E00"/>
</svg>
