<svg width="580" height="800" viewBox="0 0 580 800" fill="none" xmlns="http://www.w3.org/2000/svg">
<path d="M552.069 0H27.9312C12.6905 0 0.345215 12.3453 0.345215 27.5859V772.414C0.345215 787.655 12.6905 800 27.9312 800H552.069C567.309 800 579.655 787.655 579.655 772.414V27.5859C579.655 12.3453 567.311 0 552.069 0Z" fill="#E6EEF4"/>
<path d="M331.378 579.311C331.378 613.545 340.826 647.78 344.081 658.58C344.619 660.359 343.267 662.069 341.419 662.069H238.564C236.716 662.069 235.378 660.358 235.902 658.592C239.142 647.738 248.619 613.13 248.619 579.309C234.991 589.186 219.239 594.275 201.873 594.275C151.445 594.275 107.694 551.93 110.853 500.869C112.619 472.152 130.908 447.517 155.267 432.234C179.722 416.883 202.398 415.655 222.673 420.58C209.708 405.228 201.873 385.42 201.873 363.766C201.873 309.338 251.211 266.428 307.597 277.338C342.894 284.152 370.948 313.158 376.866 348.606C381.472 376.109 373.266 401.709 357.334 420.578C377.748 415.627 400.603 416.909 425.251 432.55C449.5 447.944 467.72 472.522 469.389 501.184C472.341 552.108 428.451 594.273 378.134 594.273C361.006 594.277 344.758 588.98 331.378 579.311Z" fill="black"/>
<path d="M96.897 41.3796C66.4235 41.3796 41.7251 66.0796 41.7251 96.5515C41.7251 127.023 66.4251 151.723 96.897 151.723C127.369 151.723 152.069 127.023 152.069 96.5515C152.069 66.0796 127.369 41.3796 96.897 41.3796ZM96.897 124.137C81.6595 124.137 69.311 111.789 69.311 96.5515C69.311 81.314 81.6595 68.9656 96.897 68.9656C112.134 68.9656 124.483 81.314 124.483 96.5515C124.483 111.789 112.134 124.137 96.897 124.137Z" fill="black"/>
<path d="M96.897 124.137C66.4235 124.137 41.7251 148.837 41.7251 179.309C41.7251 209.781 66.4251 234.481 96.897 234.481C127.369 234.481 152.069 209.781 152.069 179.309C152.069 148.837 127.369 124.137 96.897 124.137ZM96.897 206.897C81.6595 206.897 69.311 194.548 69.311 179.311C69.311 164.073 81.6595 151.725 96.897 151.725C112.134 151.725 124.483 164.073 124.483 179.311C124.483 194.548 112.134 206.897 96.897 206.897Z" fill="black"/>
</svg>
