<svg width="580" height="800" viewBox="0 0 580 800" fill="none" xmlns="http://www.w3.org/2000/svg">
<path d="M552.069 0H27.9316C12.691 0 0.345703 12.3453 0.345703 27.5859V772.414C0.345703 787.655 12.691 800 27.9316 800H552.069C567.31 800 579.655 787.655 579.655 772.414V27.5859C579.655 12.3453 567.311 0 552.069 0Z" fill="#E6EEF4"/>
<path d="M290 372.414C304.855 334.58 336.289 303.448 375.752 303.448C408.966 303.448 438.566 319.062 458.511 344.828C483.532 377.159 501.214 449.131 446.457 503.891C418.677 531.669 290 662.069 290 662.069C290 662.069 161.324 531.669 133.546 503.889C78.7863 449.13 96.4691 377.158 121.491 344.826C141.436 319.061 171.036 303.447 204.25 303.447C243.711 303.448 275.146 334.58 290 372.414Z" fill="#D71E00"/>
<path d="M96.8975 41.3796C66.424 41.3796 41.7256 66.0796 41.7256 96.5515C41.7256 127.023 66.4256 151.723 96.8975 151.723C127.369 151.723 152.069 127.023 152.069 96.5515C152.069 66.0796 127.369 41.3796 96.8975 41.3796ZM96.8975 124.137C81.66 124.137 69.3115 111.789 69.3115 96.5515C69.3115 81.314 81.66 68.9656 96.8975 68.9656C112.135 68.9656 124.483 81.314 124.483 96.5515C124.483 111.789 112.135 124.137 96.8975 124.137Z" fill="#D71E00"/>
<path d="M96.8975 124.137C66.424 124.137 41.7256 148.837 41.7256 179.309C41.7256 209.781 66.4256 234.481 96.8975 234.481C127.369 234.481 152.069 209.781 152.069 179.309C152.069 148.837 127.369 124.137 96.8975 124.137ZM96.8975 206.897C81.66 206.897 69.3115 194.548 69.3115 179.311C69.3115 164.073 81.66 151.725 96.8975 151.725C112.135 151.725 124.483 164.073 124.483 179.311C124.483 194.548 112.135 206.897 96.8975 206.897Z" fill="#D71E00"/>
</svg>
