<svg width="580" height="800" viewBox="0 0 580 800" fill="none" xmlns="http://www.w3.org/2000/svg">
<path d="M552.069 0H27.9316C12.691 0 0.345703 12.3453 0.345703 27.5859V772.414C0.345703 787.655 12.691 800 27.9316 800H552.069C567.31 800 579.655 787.655 579.655 772.414V27.5859C579.655 12.3453 567.311 0 552.069 0Z" fill="#E6EEF4"/>
<path d="M331.38 579.311C331.38 613.546 340.815 647.78 344.084 658.58C344.621 660.36 343.27 662.069 341.421 662.069H238.566C236.718 662.069 235.381 660.358 235.904 658.592C239.145 647.738 248.621 613.13 248.621 579.31C234.993 589.186 219.241 594.275 201.876 594.275C151.448 594.275 107.696 551.93 110.855 500.869C112.621 472.152 130.91 447.517 155.27 432.235C179.724 416.883 202.401 415.655 222.676 420.58C209.71 405.228 201.876 385.421 201.876 363.766C201.876 309.338 251.213 266.428 307.599 277.338C342.896 284.152 370.937 313.158 376.868 348.607C381.474 376.11 373.268 401.71 357.337 420.578C377.751 415.627 400.606 416.91 425.254 432.55C449.502 447.944 467.723 472.522 469.391 501.185C472.343 552.108 428.454 594.274 378.137 594.274C361.007 594.277 344.76 588.98 331.38 579.311Z" fill="black"/>
<path d="M96.9018 234.481C127.278 234.481 152.074 209.686 152.074 179.309V96.5501C152.074 88.9329 145.899 82.7563 138.28 82.7563C130.663 82.7563 124.486 88.9313 124.486 96.5501V179.309C124.486 194.45 112.041 206.895 96.9002 206.895C85.2065 206.895 74.794 199.408 70.8956 188.502C68.3315 181.328 60.4377 177.592 53.2643 180.156C46.0909 182.72 42.3549 190.614 44.919 197.788C52.7081 219.57 73.4456 234.481 96.9018 234.481Z" fill="black"/>
<path d="M96.8975 41.3799C66.424 41.3799 41.7256 66.0799 41.7256 96.5518C41.7256 127.024 66.4256 151.724 96.8975 151.724C127.369 151.724 152.069 127.024 152.069 96.5518C152.069 66.0799 127.369 41.3799 96.8975 41.3799ZM96.8975 124.138C81.66 124.138 69.3115 111.789 69.3115 96.5518C69.3115 81.3143 81.66 68.9658 96.8975 68.9658C112.135 68.9658 124.483 81.3143 124.483 96.5518C124.483 111.789 112.135 124.138 96.8975 124.138Z" fill="black"/>
</svg>
