<svg width="580" height="800" viewBox="0 0 580 800" fill="none" xmlns="http://www.w3.org/2000/svg">
<path d="M552.069 0H27.9312C12.6905 0 0.345215 12.3453 0.345215 27.5859V772.414C0.345215 787.655 12.6905 800 27.9312 800H552.069C567.309 800 579.655 787.655 579.655 772.414V27.5859C579.655 12.3453 567.311 0 552.069 0Z" fill="#E6EEF4"/>
<path d="M290 275.862L124.483 482.759L290 689.655L455.517 482.759L290 275.862Z" fill="#D71E00"/>
<path d="M96.9018 234.481C127.278 234.481 152.074 209.686 152.074 179.309V96.55C152.074 88.9328 145.899 82.7562 138.28 82.7562C130.663 82.7562 124.486 88.9312 124.486 96.55V179.309C124.486 194.45 112.041 206.895 96.9002 206.895C85.2065 206.895 74.794 199.408 70.8956 188.502C68.3315 181.328 60.4377 177.592 53.2643 180.156C46.0909 182.72 42.3549 190.614 44.919 197.787C52.7081 219.57 73.4456 234.481 96.9018 234.481Z" fill="#D71E00"/>
<path d="M96.897 41.3797C66.4235 41.3797 41.7251 66.0797 41.7251 96.5516C41.7251 127.023 66.4251 151.723 96.897 151.723C127.369 151.723 152.069 127.023 152.069 96.5516C152.069 66.0797 127.369 41.3797 96.897 41.3797ZM96.897 124.137C81.6595 124.137 69.311 111.789 69.311 96.5516C69.311 81.3141 81.6595 68.9656 96.897 68.9656C112.134 68.9656 124.483 81.3141 124.483 96.5516C124.483 111.789 112.134 124.137 96.897 124.137Z" fill="#D71E00"/>
</svg>
