<svg width="580" height="800" viewBox="0 0 580 800" fill="none" xmlns="http://www.w3.org/2000/svg">
<path d="M552.069 0H27.9312C12.6905 0 0.345215 12.3453 0.345215 27.5859V772.414C0.345215 787.655 12.6905 800 27.9312 800H552.069C567.309 800 579.655 787.655 579.655 772.414V27.5859C579.655 12.3453 567.311 0 552.069 0Z" fill="#E6EEF4"/>
<path d="M290 372.414C304.855 334.58 336.289 303.448 375.752 303.448C408.966 303.448 438.566 319.062 458.511 344.828C483.532 377.159 501.214 449.131 446.457 503.891C418.677 531.669 290 662.069 290 662.069C290 662.069 161.324 531.669 133.546 503.889C78.7863 449.13 96.4691 377.158 121.491 344.826C141.436 319.061 171.036 303.447 204.25 303.447C243.711 303.448 275.146 334.58 290 372.414Z" fill="#D71E00"/>
<path d="M96.9003 234.486C127.277 234.486 152.072 209.691 152.072 179.314V96.5546C152.072 88.9374 145.897 82.7609 138.278 82.7609C130.66 82.7609 124.485 88.9359 124.485 96.5546V179.314C124.485 194.455 112.039 206.9 96.8987 206.9C85.1847 206.9 74.7472 199.367 70.8644 188.416C68.3191 181.236 60.4347 177.478 53.255 180.023C46.0753 182.569 42.3175 190.453 44.8628 197.633C52.6159 219.492 73.3925 234.486 96.9003 234.486Z" fill="#D71E00"/>
<path d="M96.897 41.3796C66.4235 41.3796 41.7251 66.0796 41.7251 96.5515C41.7251 127.023 66.4251 151.723 96.897 151.723C127.369 151.723 152.069 127.023 152.069 96.5515C152.069 66.0796 127.369 41.3796 96.897 41.3796ZM96.897 124.137C81.6595 124.137 69.311 111.789 69.311 96.5515C69.311 81.314 81.6595 68.9656 96.897 68.9656C112.134 68.9656 124.483 81.314 124.483 96.5515C124.483 111.789 112.134 124.137 96.897 124.137Z" fill="#D71E00"/>
</svg>
