<svg width="580" height="800" viewBox="0 0 580 800" fill="none" xmlns="http://www.w3.org/2000/svg">
<path d="M552.069 0H27.9316C12.691 0 0.345703 12.3453 0.345703 27.5859V772.414C0.345703 787.655 12.691 800 27.9316 800H552.069C567.31 800 579.655 787.655 579.655 772.414V27.5859C579.655 12.3453 567.311 0 552.069 0Z" fill="#E6EEF4"/>
<path d="M331.38 579.311C331.38 613.545 340.814 647.78 344.083 658.58C344.62 660.359 343.269 662.069 341.42 662.069H238.565C236.717 662.069 235.38 660.358 235.903 658.592C239.144 647.738 248.62 613.13 248.62 579.309C234.992 589.186 219.24 594.275 201.875 594.275C151.447 594.275 107.695 551.93 110.855 500.869C112.62 472.152 130.909 447.517 155.269 432.234C179.723 416.883 202.4 415.655 222.675 420.58C209.709 405.228 201.875 385.42 201.875 363.766C201.875 309.338 251.212 266.428 307.598 277.338C342.895 284.152 370.936 313.158 376.867 348.606C381.473 376.109 373.267 401.709 357.336 420.578C377.75 415.627 400.605 416.909 425.253 432.55C449.501 447.944 467.722 472.522 469.39 501.184C472.342 552.108 428.453 594.273 378.136 594.273C361.006 594.277 344.759 588.98 331.38 579.311Z" fill="black"/>
<path d="M123.775 50.8109C119.583 38.2359 101.797 38.2359 97.6049 50.8109L42.4314 216.328C40.0221 223.555 43.9283 231.366 51.1549 233.775C58.3814 236.184 66.1924 232.278 68.6018 225.052L123.774 59.5343H97.6033L152.775 225.052C155.185 232.278 162.995 236.184 170.222 233.775C177.449 231.366 181.355 223.555 178.946 216.328L123.775 50.8109Z" fill="black"/>
<path d="M138.277 179.311C145.894 179.311 152.071 173.136 152.071 165.517C152.071 157.9 145.896 151.723 138.277 151.723H83.1053C75.4881 151.723 69.3115 157.898 69.3115 165.517C69.3115 173.134 75.4865 179.311 83.1053 179.311H138.277Z" fill="black"/>
</svg>
