<svg width="580" height="800" viewBox="0 0 580 800" fill="none" xmlns="http://www.w3.org/2000/svg">
<path d="M552.069 0H27.9312C12.6905 0 0.345215 12.3453 0.345215 27.5859V772.414C0.345215 787.655 12.6905 800 27.9312 800H552.069C567.309 800 579.655 787.655 579.655 772.414V27.5859C579.655 12.3453 567.311 0 552.069 0Z" fill="#E6EEF4"/>
<path d="M331.379 565.517C331.379 565.517 400.634 634.772 455.517 551.723C484.083 508.495 464.717 466.386 434.262 437.283L303.159 308.166C295.779 301.877 284.442 301.877 277.048 308.166L144.042 437.283C117.876 464.662 95.5872 508.386 124.482 551.723C179.654 634.483 248.62 565.517 248.62 565.517C248.62 600.869 238.551 646.303 235.614 658.772C235.214 660.509 236.551 662.069 238.331 662.069H341.682C343.462 662.069 344.786 660.511 344.386 658.786C341.462 646.277 331.379 600.648 331.379 565.517Z" fill="black"/>
<path d="M123.775 50.8109C119.583 38.2359 101.797 38.2359 97.6044 50.8109L42.431 216.328C40.0216 223.555 43.9278 231.366 51.1544 233.775C58.381 236.184 66.1919 232.278 68.6013 225.052L123.773 59.5344H97.6028L152.775 225.052C155.184 232.278 162.995 236.184 170.222 233.775C177.448 231.366 181.354 223.555 178.945 216.328L123.775 50.8109Z" fill="black"/>
<path d="M138.276 179.311C145.893 179.311 152.07 173.136 152.07 165.517C152.07 157.9 145.895 151.723 138.276 151.723H83.1043C75.4871 151.723 69.3105 157.898 69.3105 165.517C69.3105 173.134 75.4855 179.311 83.1043 179.311H138.276Z" fill="black"/>
</svg>
