<svg width="580" height="800" viewBox="0 0 580 800" fill="none" xmlns="http://www.w3.org/2000/svg">
<path d="M552.069 0H27.9312C12.6905 0 0.345215 12.3453 0.345215 27.5859V772.414C0.345215 787.655 12.6905 800 27.9312 800H552.069C567.309 800 579.655 787.655 579.655 772.414V27.5859C579.655 12.3453 567.311 0 552.069 0Z" fill="#E6EEF4"/>
<path d="M331.38 579.311C331.38 613.545 340.814 647.78 344.083 658.58C344.62 660.359 343.269 662.069 341.42 662.069H238.565C236.717 662.069 235.38 660.358 235.903 658.592C239.144 647.738 248.62 613.13 248.62 579.309C234.992 589.186 219.24 594.275 201.875 594.275C151.447 594.275 107.695 551.93 110.855 500.869C112.62 472.152 130.909 447.517 155.269 432.234C179.723 416.883 202.4 415.655 222.675 420.58C209.709 405.228 201.875 385.42 201.875 363.766C201.875 309.338 251.212 266.428 307.598 277.338C342.895 284.152 370.936 313.158 376.867 348.606C381.473 376.109 373.267 401.709 357.336 420.578C377.75 415.627 400.605 416.909 425.253 432.55C449.501 447.944 467.722 472.522 469.39 501.184C472.342 552.108 428.453 594.273 378.136 594.273C361.006 594.277 344.759 588.98 331.38 579.311Z" fill="black"/>
<path d="M96.8967 220.689C127.273 220.689 152.069 195.894 152.069 165.517V55.1719C152.069 47.5547 145.894 41.3782 138.275 41.3782C130.656 41.3782 124.481 47.5532 124.481 55.1719V165.517C124.481 180.658 112.036 193.103 96.8951 193.103C81.7545 193.103 69.3092 180.658 69.3092 165.517C69.3092 157.9 63.1342 151.723 55.5154 151.723C47.8982 151.723 41.7217 157.898 41.7217 165.517C41.7232 195.894 66.5201 220.689 96.8967 220.689Z" fill="black"/>
<path d="M165.862 68.9657C173.479 68.9657 179.656 62.7907 179.656 55.1719C179.656 47.5532 173.481 41.3782 165.862 41.3782H110.69C103.073 41.3782 96.8965 47.5532 96.8965 55.1719C96.8965 62.7907 103.071 68.9657 110.69 68.9657H165.862Z" fill="black"/>
</svg>
