<svg width="580" height="800" viewBox="0 0 580 800" fill="none" xmlns="http://www.w3.org/2000/svg">
<path d="M552.069 0H27.9312C12.6905 0 0.345215 12.3453 0.345215 27.5859V772.414C0.345215 787.655 12.6905 800 27.9312 800H552.069C567.309 800 579.655 787.655 579.655 772.414V27.5859C579.655 12.3453 567.311 0 552.069 0Z" fill="#E6EEF4"/>
<path d="M290 275.862L124.482 482.759L290 689.655L455.517 482.759L290 275.862Z" fill="#D71E00"/>
<path d="M96.8967 220.689C127.273 220.689 152.069 195.894 152.069 165.517V55.1719C152.069 47.5547 145.894 41.3781 138.275 41.3781C130.656 41.3781 124.481 47.5531 124.481 55.1719V165.517C124.481 180.658 112.036 193.103 96.8951 193.103C81.7545 193.103 69.3092 180.658 69.3092 165.517C69.3092 157.9 63.1342 151.723 55.5154 151.723C47.8982 151.723 41.7217 157.898 41.7217 165.517C41.7232 195.894 66.5201 220.689 96.8967 220.689Z" fill="#D71E00"/>
<path d="M165.862 68.9656C173.479 68.9656 179.656 62.7906 179.656 55.1719C179.656 47.5531 173.481 41.3781 165.862 41.3781H110.69C103.073 41.3781 96.8965 47.5531 96.8965 55.1719C96.8965 62.7906 103.071 68.9656 110.69 68.9656H165.862Z" fill="#D71E00"/>
</svg>
