<svg width="580" height="800" viewBox="0 0 580 800" fill="none" xmlns="http://www.w3.org/2000/svg">
<path d="M552.069 0H27.9316C12.691 0 0.345703 12.3453 0.345703 27.5859V772.414C0.345703 787.655 12.691 800 27.9316 800H552.069C567.31 800 579.655 787.655 579.655 772.414V27.5859C579.655 12.3453 567.311 0 552.069 0Z" fill="#E6EEF4"/>
<path d="M290 372.414C304.855 334.58 336.289 303.448 375.752 303.448C408.966 303.448 438.566 319.063 458.511 344.828C483.532 377.159 501.214 449.131 446.457 503.891C418.677 531.669 290 662.069 290 662.069C290 662.069 161.324 531.669 133.546 503.889C78.7863 449.13 96.4691 377.158 121.491 344.827C141.436 319.061 171.036 303.447 204.25 303.447C243.711 303.448 275.146 334.58 290 372.414Z" fill="#D71E00"/>
<path d="M96.8977 220.689C127.274 220.689 152.07 195.894 152.07 165.517V55.1719C152.07 47.5547 145.895 41.3781 138.276 41.3781C130.657 41.3781 124.482 47.5531 124.482 55.1719V165.517C124.482 180.658 112.037 193.103 96.8961 193.103C81.7555 193.103 69.3102 180.658 69.3102 165.517C69.3102 157.9 63.1352 151.723 55.5164 151.723C47.8992 151.723 41.7227 157.898 41.7227 165.517C41.7242 195.894 66.5211 220.689 96.8977 220.689Z" fill="#D71E00"/>
<path d="M165.863 68.9656C173.48 68.9656 179.657 62.7906 179.657 55.1719C179.657 47.5531 173.482 41.3781 165.863 41.3781H110.691C103.074 41.3781 96.8975 47.5531 96.8975 55.1719C96.8975 62.7906 103.072 68.9656 110.691 68.9656H165.863Z" fill="#D71E00"/>
</svg>
