<svg width="580" height="800" viewBox="0 0 580 800" fill="none" xmlns="http://www.w3.org/2000/svg">
<path d="M552.069 0H27.9316C12.691 0 0.345703 12.3453 0.345703 27.5859V772.414C0.345703 787.655 12.691 800 27.9316 800H552.069C567.31 800 579.655 787.655 579.655 772.414V27.5859C579.655 12.3453 567.311 0 552.069 0Z" fill="#E6EEF4"/>
<path d="M331.38 565.517C331.38 565.517 400.635 634.772 455.518 551.723C484.083 508.495 464.718 466.386 434.263 437.283L303.16 308.166C295.78 301.877 284.443 301.877 277.049 308.166L144.043 437.283C117.877 464.662 95.5882 508.386 124.483 551.723C179.655 634.483 248.621 565.517 248.621 565.517C248.621 600.869 238.552 646.303 235.615 658.772C235.215 660.509 236.552 662.069 238.332 662.069H341.683C343.463 662.069 344.787 660.511 344.387 658.786C341.463 646.277 331.38 600.648 331.38 565.517Z" fill="black"/>
<path d="M96.8977 220.689C127.274 220.689 152.07 195.894 152.07 165.517V55.1719C152.07 47.5547 145.895 41.3781 138.276 41.3781C130.657 41.3781 124.482 47.5531 124.482 55.1719V165.517C124.482 180.658 112.037 193.103 96.8961 193.103C81.7555 193.103 69.3102 180.658 69.3102 165.517C69.3102 157.9 63.1352 151.723 55.5164 151.723C47.8992 151.723 41.7227 157.898 41.7227 165.517C41.7242 195.894 66.5211 220.689 96.8977 220.689Z" fill="black"/>
<path d="M165.863 68.9656C173.48 68.9656 179.657 62.7906 179.657 55.1719C179.657 47.5531 173.482 41.3781 165.863 41.3781H110.691C103.074 41.3781 96.8975 47.5531 96.8975 55.1719C96.8975 62.7906 103.072 68.9656 110.691 68.9656H165.863Z" fill="black"/>
</svg>
