<svg width="580" height="800" viewBox="0 0 580 800" fill="none" xmlns="http://www.w3.org/2000/svg">
<path d="M552.069 0H27.9312C12.6905 0 0.345215 12.3453 0.345215 27.5859V772.414C0.345215 787.655 12.6905 800 27.9312 800H552.069C567.309 800 579.655 787.655 579.655 772.414V27.5859C579.655 12.3453 567.311 0 552.069 0Z" fill="#E6EEF4"/>
<path d="M331.378 579.311C331.378 613.545 340.826 647.78 344.081 658.58C344.619 660.359 343.267 662.069 341.419 662.069H238.564C236.716 662.069 235.378 660.358 235.902 658.592C239.142 647.738 248.619 613.13 248.619 579.309C234.991 589.186 219.239 594.275 201.873 594.275C151.445 594.275 107.694 551.93 110.853 500.869C112.619 472.152 130.908 447.517 155.267 432.234C179.722 416.883 202.398 415.655 222.673 420.58C209.708 405.228 201.873 385.42 201.873 363.766C201.873 309.338 251.211 266.428 307.597 277.338C342.894 284.152 370.948 313.158 376.866 348.606C381.472 376.109 373.266 401.709 357.334 420.578C377.748 415.627 400.603 416.909 425.251 432.55C449.5 447.944 467.72 472.522 469.389 501.184C472.341 552.108 428.451 594.273 378.134 594.273C361.006 594.277 344.758 588.98 331.378 579.311Z" fill="black"/>
<path d="M41.7231 220.689C41.7231 228.306 47.8981 234.483 55.5169 234.483C63.1341 234.483 69.3107 228.308 69.3107 220.689V55.1719C69.3107 47.5547 63.1356 41.3782 55.5169 41.3782C47.8997 41.3782 41.7231 47.5532 41.7231 55.1719V220.689Z" fill="black"/>
<path d="M148.748 64.1485C153.706 58.3642 153.036 49.6579 147.253 44.7001C141.47 39.7423 132.762 40.4126 127.804 46.1954L45.0451 142.749C40.0873 148.533 40.7576 157.239 46.5404 162.197C52.3248 167.155 61.031 166.484 65.9888 160.702L148.748 64.1485Z" fill="black"/>
<path d="M94.328 116.12C89.8998 109.922 81.2858 108.486 75.0873 112.914C68.8889 117.342 67.453 125.956 71.8811 132.155L140.847 228.706C145.275 234.905 153.889 236.341 160.087 231.912C166.286 227.484 167.722 218.87 163.294 212.672L94.328 116.12Z" fill="black"/>
</svg>
