<svg width="580" height="800" viewBox="0 0 580 800" fill="none" xmlns="http://www.w3.org/2000/svg">
<path d="M552.069 0H27.9312C12.6905 0 0.345215 12.3453 0.345215 27.5859V772.414C0.345215 787.655 12.6905 800 27.9312 800H552.069C567.309 800 579.655 787.655 579.655 772.414V27.5859C579.655 12.3453 567.311 0 552.069 0Z" fill="#E6EEF4"/>
<path d="M290 372.414C304.855 334.58 336.289 303.448 375.751 303.448C408.965 303.448 438.565 319.063 458.511 344.828C483.531 377.159 501.214 449.131 446.456 503.891C418.676 531.669 290 662.069 290 662.069C290 662.069 161.323 531.669 133.545 503.889C78.7858 449.13 96.4686 377.158 121.49 344.827C141.436 319.061 171.036 303.447 204.25 303.447C243.711 303.448 275.145 334.58 290 372.414Z" fill="#D71E00"/>
<path d="M41.7231 220.689C41.7231 228.306 47.8981 234.483 55.5169 234.483C63.1341 234.483 69.3107 228.308 69.3107 220.689V55.1719C69.3107 47.5547 63.1356 41.3782 55.5169 41.3782C47.8997 41.3782 41.7231 47.5532 41.7231 55.1719V220.689Z" fill="#D71E00"/>
<path d="M148.748 64.1485C153.706 58.3642 153.036 49.6579 147.253 44.7001C141.47 39.7423 132.762 40.4126 127.804 46.1954L45.0451 142.749C40.0873 148.533 40.7576 157.239 46.5404 162.197C52.3248 167.155 61.031 166.484 65.9888 160.702L148.748 64.1485Z" fill="#D71E00"/>
<path d="M94.328 116.12C89.8998 109.922 81.2858 108.486 75.0873 112.914C68.8889 117.342 67.453 125.956 71.8811 132.155L140.847 228.706C145.275 234.905 153.889 236.341 160.087 231.912C166.286 227.484 167.722 218.87 163.294 212.672L94.328 116.12Z" fill="#D71E00"/>
</svg>
