<svg width="580" height="800" viewBox="0 0 580 800" fill="none" xmlns="http://www.w3.org/2000/svg">
<path d="M552.069 0H27.9312C12.6905 0 0.345215 12.3453 0.345215 27.5859V772.414C0.345215 787.655 12.6905 800 27.9312 800H552.069C567.309 800 579.655 787.655 579.655 772.414V27.5859C579.655 12.3453 567.311 0 552.069 0Z" fill="#E6EEF4"/>
<path d="M331.379 565.517C331.379 565.517 400.634 634.772 455.517 551.723C484.083 508.495 464.717 466.386 434.262 437.283L303.159 308.166C295.779 301.877 284.442 301.877 277.048 308.166L144.042 437.283C117.876 464.663 95.5872 508.386 124.482 551.723C179.654 634.483 248.62 565.517 248.62 565.517C248.62 600.869 238.551 646.303 235.614 658.772C235.214 660.509 236.551 662.069 238.331 662.069H341.682C343.462 662.069 344.786 660.511 344.386 658.786C341.462 646.277 331.379 600.648 331.379 565.517Z" fill="black"/>
<path d="M41.7231 220.689C41.7231 228.306 47.8981 234.483 55.5169 234.483C63.1341 234.483 69.3107 228.308 69.3107 220.689V55.1719C69.3107 47.5547 63.1356 41.3782 55.5169 41.3782C47.8997 41.3782 41.7231 47.5532 41.7231 55.1719V220.689Z" fill="black"/>
<path d="M148.748 64.1485C153.706 58.3642 153.036 49.6579 147.253 44.7001C141.47 39.7423 132.762 40.4126 127.804 46.1954L45.0451 142.749C40.0873 148.533 40.7576 157.239 46.5404 162.197C52.3248 167.155 61.031 166.484 65.9888 160.702L148.748 64.1485Z" fill="black"/>
<path d="M94.328 116.12C89.8998 109.922 81.2858 108.486 75.0873 112.914C68.8889 117.342 67.453 125.956 71.8811 132.155L140.847 228.706C145.275 234.905 153.889 236.341 160.087 231.912C166.286 227.484 167.722 218.87 163.294 212.672L94.328 116.12Z" fill="black"/>
</svg>
