<svg width="580" height="800" viewBox="0 0 580 800" fill="none" xmlns="http://www.w3.org/2000/svg">
<path d="M552.069 0H27.9312C12.6905 0 0.345215 12.3453 0.345215 27.5859V772.414C0.345215 787.655 12.6905 800 27.9312 800H552.069C567.309 800 579.655 787.655 579.655 772.414V27.5859C579.655 12.3453 567.311 0 552.069 0Z" fill="#E6EEF4"/>
<path d="M331.38 579.311C331.38 613.545 340.814 647.78 344.083 658.58C344.62 660.359 343.269 662.069 341.42 662.069H238.565C236.717 662.069 235.38 660.358 235.903 658.592C239.144 647.738 248.62 613.13 248.62 579.309C234.98 589.186 219.24 594.275 201.875 594.275C151.447 594.275 107.695 551.93 110.855 500.869C112.62 472.152 130.909 447.517 155.269 432.234C179.723 416.883 202.4 415.655 222.675 420.58C209.709 405.228 201.875 385.42 201.875 363.766C201.875 309.338 251.212 266.428 307.598 277.338C342.895 284.152 370.936 313.158 376.867 348.606C381.473 376.109 373.267 401.709 357.336 420.578C377.75 415.627 400.605 416.909 425.253 432.55C449.501 447.944 467.722 472.522 469.39 501.184C472.342 552.108 428.453 594.273 378.136 594.273C361.006 594.277 344.759 588.98 331.38 579.311Z" fill="black"/>
<path d="M41.7231 96.5515V179.311C41.7231 209.687 66.5185 234.483 96.895 234.483C127.272 234.483 152.067 209.687 152.067 179.311V96.5515C152.067 66.1749 127.272 41.3796 96.895 41.3796C66.5185 41.3796 41.7231 66.1749 41.7231 96.5515ZM124.483 96.5515V179.311C124.483 194.452 112.037 206.897 96.8966 206.897C81.756 206.897 69.3107 194.452 69.3107 179.311V96.5515C69.3107 81.4109 81.756 68.9656 96.8966 68.9656C112.037 68.9656 124.483 81.4109 124.483 96.5515Z" fill="black"/>
<path d="M143.794 231.723C149.887 236.294 158.533 235.059 163.105 228.964C167.675 222.87 166.441 214.225 160.345 209.653L105.173 168.273C99.0796 163.703 90.4343 164.937 85.8624 171.033C81.2921 177.126 82.5264 185.772 88.6218 190.344L143.794 231.723Z" fill="black"/>
</svg>
