<svg width="580" height="800" viewBox="0 0 580 800" fill="none" xmlns="http://www.w3.org/2000/svg">
<path d="M552.069 0H27.9316C12.691 0 0.345703 12.3453 0.345703 27.5859V772.414C0.345703 787.655 12.691 800 27.9316 800H552.069C567.31 800 579.655 787.655 579.655 772.414V27.5859C579.655 12.3453 567.311 0 552.069 0Z" fill="#E6EEF4"/>
<path d="M290.001 275.862L124.483 482.759L290.001 689.655L455.518 482.759L290.001 275.862Z" fill="#D71E00"/>
<path d="M41.7236 96.5516V179.311C41.7236 209.687 66.5189 234.483 96.8955 234.483C127.272 234.483 152.067 209.687 152.067 179.311V96.5516C152.067 66.175 127.272 41.3797 96.8955 41.3797C66.5189 41.3797 41.7236 66.175 41.7236 96.5516ZM124.483 96.5516V179.311C124.483 194.452 112.038 206.897 96.8971 206.897C81.7565 206.897 69.3111 194.452 69.3111 179.311V96.5516C69.3111 81.4109 81.7565 68.9656 96.8971 68.9656C112.038 68.9656 124.483 81.4109 124.483 96.5516Z" fill="#D71E00"/>
<path d="M143.794 231.723C149.888 236.294 158.533 235.059 163.105 228.964C167.675 222.87 166.441 214.225 160.346 209.653L105.174 168.273C99.0801 163.703 90.4347 164.937 85.8629 171.033C81.2926 177.127 82.5269 185.772 88.6222 190.344L143.794 231.723Z" fill="#D71E00"/>
</svg>
