<svg width="580" height="800" viewBox="0 0 580 800" fill="none" xmlns="http://www.w3.org/2000/svg">
<path d="M552.069 0H27.9312C12.6905 0 0.345215 12.3453 0.345215 27.5859V772.414C0.345215 787.655 12.6905 800 27.9312 800H552.069C567.309 800 579.655 787.655 579.655 772.414V27.5859C579.655 12.3453 567.311 0 552.069 0Z" fill="#E6EEF4"/>
<path d="M331.379 565.517C331.379 565.517 400.634 634.772 455.517 551.723C484.083 508.495 464.717 466.386 434.262 437.283L303.159 308.166C295.779 301.877 284.442 301.877 277.048 308.166L144.042 437.283C117.876 464.662 95.5872 508.386 124.482 551.723C179.654 634.483 248.62 565.517 248.62 565.517C248.62 600.869 238.551 646.303 235.614 658.772C235.214 660.509 236.551 662.069 238.331 662.069H341.682C343.462 662.069 344.786 660.511 344.386 658.786C341.462 646.277 331.379 600.648 331.379 565.517Z" fill="black"/>
<path d="M41.7231 96.5516V179.311C41.7231 209.688 66.5185 234.483 96.895 234.483C127.272 234.483 152.067 209.688 152.067 179.311V96.5516C152.067 66.175 127.272 41.3797 96.895 41.3797C66.5185 41.3797 41.7231 66.175 41.7231 96.5516ZM124.483 96.5516V179.311C124.483 194.452 112.037 206.897 96.8966 206.897C81.756 206.897 69.3107 194.452 69.3107 179.311V96.5516C69.3107 81.4109 81.756 68.9656 96.8966 68.9656C112.037 68.9656 124.483 81.4109 124.483 96.5516Z" fill="black"/>
<path d="M143.794 231.723C149.887 236.294 158.533 235.059 163.105 228.964C167.675 222.87 166.441 214.225 160.345 209.653L105.173 168.273C99.0796 163.703 90.4343 164.938 85.8624 171.033C81.2921 177.127 82.5264 185.772 88.6218 190.344L143.794 231.723Z" fill="black"/>
</svg>
